<svg width="464" height="512" viewBox="0 0 464 512" fill="none" xmlns="http://www.w3.org/2000/svg">
<path d="M428.749 270.471C424.145 264.502 419.149 258.531 413.81 252.583C417.48 248.324 420.977 244.057 424.268 239.791C458.284 195.685 467.942 155.674 451.462 127.131C434.983 98.587 395.508 86.946 340.298 94.352C334.478 95.133 328.537 96.123 322.501 97.299C320.447 91.294 318.272 85.477 315.97 79.881C294.78 28.369 264.959 0 232 0C199.041 0 169.22 28.369 148.031 79.881C145.729 85.477 143.554 91.294 141.5 97.299C135.464 96.124 129.522 95.133 123.703 94.352C68.499 86.947 29.019 98.587 12.539 127.131C-3.94096 155.675 5.71704 195.685 39.733 239.791C43.023 244.057 46.52 248.324 50.191 252.583C44.851 258.531 39.856 264.501 35.252 270.471C1.23604 314.577 -8.42196 354.588 8.05803 383.131C21.299 406.065 49.379 418.086 88.542 418.086C98.121 418.086 108.371 417.366 119.221 415.91C126.209 414.972 133.371 413.736 140.667 412.231C142.962 419.115 145.415 425.76 148.031 432.12C169.22 483.631 199.041 512 232 512C264.959 512 294.78 483.631 315.969 432.119C318.585 425.759 321.038 419.114 323.333 412.23C330.629 413.735 337.791 414.972 344.779 415.909C355.632 417.365 365.876 418.085 375.458 418.085C414.617 418.085 442.703 406.063 455.942 383.13C472.423 354.587 462.765 314.577 428.749 270.471V270.471ZM371.146 122.126C398.568 122.126 417.95 129.087 425.481 142.13C435.335 159.198 426.234 188.116 400.512 221.469C398.061 224.647 395.48 227.827 392.792 231.006C377.753 216.698 360.824 202.698 342.406 189.356C339.862 167.139 336.037 145.909 331.035 126.17C345.719 123.46 359.202 122.126 371.146 122.126V122.126ZM271.825 327.992C258.34 335.777 245.031 342.761 232.009 348.971C218.979 342.759 205.667 335.782 192.175 327.992C177.29 319.398 163.045 310.302 149.606 300.854C148.478 286.504 147.868 271.531 147.868 256C147.868 238.602 148.631 221.901 150.035 205.998C162.019 197.769 174.608 189.825 187.693 182.27C202.733 173.587 217.55 165.913 231.999 159.186C246.449 165.913 261.266 173.587 276.306 182.27C289.392 189.825 301.98 197.769 313.964 205.998C315.368 221.901 316.131 238.602 316.131 256C316.131 271.531 315.521 286.504 314.393 300.854C300.955 310.302 286.71 319.398 271.825 327.992V327.992ZM309.817 340.004C307.807 352.774 305.369 364.87 302.569 376.206C291.442 372.973 279.849 369.061 267.892 364.452C274.218 361.093 280.535 357.604 286.825 353.973C294.659 349.449 302.326 344.784 309.817 340.004ZM196.106 364.451C184.147 369.061 172.557 372.969 161.429 376.202C158.63 364.868 156.192 352.773 154.182 340.004C161.673 344.784 169.34 349.449 177.174 353.972C183.464 357.604 189.78 361.093 196.106 364.451ZM118.234 276.944C108.734 269.074 99.833 261.056 91.62 252.963C99.943 245.026 108.911 237.176 118.451 229.479C118.068 238.234 117.868 247.082 117.868 256C117.868 263.029 117.995 270.013 118.234 276.944ZM155.012 166.908C157.029 154.955 159.425 143.625 162.14 132.982C172.799 135.961 183.907 139.577 195.368 143.838C187.79 147.793 180.223 151.943 172.694 156.29C166.7 159.75 160.807 163.295 155.012 166.908V166.908ZM268.631 143.837C280.092 139.576 291.2 135.959 301.86 132.981C304.575 143.625 306.971 154.955 308.988 166.908C303.193 163.295 297.3 159.75 291.307 156.29C283.776 151.942 276.21 147.792 268.631 143.837ZM345.549 229.479C355.089 237.176 364.057 245.026 372.38 252.963C364.167 261.056 355.266 269.074 345.766 276.944C346.005 270.013 346.132 263.029 346.132 256C346.132 247.081 345.932 238.234 345.549 229.479V229.479ZM232 30C253.699 30 276.749 57.603 293.225 104.297C273.374 109.876 252.796 117.273 232 126.315C211.204 117.273 190.626 109.877 170.775 104.297C187.251 57.603 210.301 30 232 30ZM38.519 142.131C46.051 129.086 65.424 122.127 92.854 122.127C104.797 122.127 118.281 123.461 132.966 126.172C127.963 145.911 124.139 167.141 121.595 189.357C103.177 202.699 86.248 216.699 71.209 231.007C68.521 227.828 65.94 224.648 63.489 221.47C37.766 188.117 28.665 159.199 38.519 142.131ZM88.373 388.135C60.951 388.133 41.569 381.174 34.038 368.131C24.184 351.063 33.285 322.145 59.007 288.792C62.672 284.039 66.611 279.281 70.8 274.531C85.669 289.149 102.546 303.488 120.998 317.18C123.427 340.446 127.241 362.701 132.34 383.357C116.151 386.568 101.356 388.136 88.373 388.135V388.135ZM232 482C209.88 482 186.359 453.31 169.827 404.959C190.013 399.091 210.915 391.364 232 381.972C253.085 391.364 273.987 399.091 294.173 404.959C277.641 453.31 254.12 482 232 482ZM429.962 368.131C418.866 387.351 382.054 393.352 331.659 383.357C336.759 362.701 340.572 340.446 343.001 317.18C361.454 303.488 378.331 289.149 393.199 274.531C397.388 279.281 401.327 284.04 404.992 288.792C430.716 322.145 439.817 351.063 429.962 368.131Z" fill="#129EDA"/>
<path d="M232 302.35C257.598 302.35 278.35 281.598 278.35 256C278.35 230.402 257.598 209.65 232 209.65C206.402 209.65 185.65 230.402 185.65 256C185.65 281.598 206.402 302.35 232 302.35Z" fill="#129EDA"/>
</svg>
