<svg id="Layer_1" enable-background="new 0 0 512 512" viewBox="0 0 512 512" xmlns="http://www.w3.org/2000/svg"><g><g><g><path d="m501.333 277.333h-10.667v-10.667c0-6.4-4.267-10.667-10.667-10.667s-10.667 4.267-10.667 10.667v10.667h-10.667c-6.4 0-10.667 4.267-10.667 10.667s4.267 10.667 10.667 10.667h10.667v10.667c0 6.4 4.267 10.667 10.667 10.667s10.667-4.267 10.667-10.667v-10.667h10.667c6.4 0 10.667-4.267 10.667-10.667s-4.267-10.667-10.667-10.667z"/><path d="m437.333 362.667c-6.4 0-10.667 4.267-10.667 10.667v64c0 17.066-14.934 32-32 32h-341.333c-17.066 0-32-14.934-32-32v-309.334h405.333v74.667c0 6.4 4.267 10.667 10.667 10.667s10.667-4.267 10.667-10.667v-128c0-29.867-23.467-53.333-53.333-53.333h-341.334c-29.866-.001-53.333 23.466-53.333 53.333v362.667c0 29.867 23.467 53.333 53.333 53.333h341.333c29.867 0 53.333-23.467 53.333-53.333v-64c.001-6.4-4.266-10.667-10.666-10.667zm-298.666-298.667c6.4 0 10.667 4.267 10.667 10.667s-4.267 10.667-10.667 10.667-10.667-4.267-10.667-10.667 4.267-10.667 10.667-10.667zm-42.667 0c6.4 0 10.667 4.267 10.667 10.667s-4.267 10.667-10.667 10.667-10.667-4.267-10.667-10.667 4.267-10.667 10.667-10.667zm-42.667 0c6.4 0 10.667 4.267 10.667 10.667s-4.267 10.667-10.667 10.667-10.667-4.267-10.667-10.667c.001-6.4 4.268-10.667 10.667-10.667z"/><path d="m394.667 320c6.4 0 10.667-4.267 10.667-10.667v-10.667h10.666c6.4 0 10.667-4.267 10.667-10.667s-4.267-10.667-10.667-10.667h-10.667v-10.667c0-6.4-4.267-10.667-10.667-10.667s-10.667 4.267-10.667 10.667v10.667h-10.667c-6.4 0-10.667 4.267-10.667 10.667s4.267 10.667 10.667 10.667h10.668v10.667c0 6.401 4.267 10.667 10.667 10.667z"/><path d="m288 256h21.333c6.4 0 10.667 4.267 10.667 10.667s4.267 10.667 10.667 10.667 10.667-4.267 10.667-10.667c0-17.066-14.934-32-32-32h-21.334c-17.066 0-32 14.934-32 32v42.667c0 17.066 14.934 32 32 32h21.333c17.066 0 32-14.934 32-32 0-6.4-4.267-10.667-10.667-10.667s-10.667 4.267-10.667 10.667-4.266 10.666-10.666 10.666h-21.333c-6.4 0-10.667-4.267-10.667-10.667v-42.667c0-6.399 4.267-10.666 10.667-10.666z"/></g></g></g><g/><g/><g/><g/><g/><g/><g/><g/><g/><g/><g/><g/><g/><g/><g/></svg>