<?xml version="1.0"?>
<svg xmlns:rdf="http://www.w3.org/1999/02/22-rdf-syntax-ns#" xmlns="http://www.w3.org/2000/svg" xmlns:cc="http://creativecommons.org/ns#" xmlns:dc="http://purl.org/dc/elements/1.1/" xmlns:svg="http://www.w3.org/2000/svg" id="svg2" viewBox="0 0 294.04 130.56" version="1.0">
  <g id="layer1" transform="translate(-78.527 -262.2)">
    <path id="path1938" transform="translate(66.028 198.13)" d="m125.47 64.125c-24.4 0.368-56.083 0.174-75.891 14.889-8.22 6.107-12.328 9.309-20.61 15.361-3.715 2.845-6.95 6.185-8.125 11.405l-0.032 0.16 0.063 0.12c0.375 0.78 0.522 1.42 0.5 1.97-0.007 0.02 0.007 0.04 0 0.06-0.086 0.25-0.17 0.49-0.25 0.72-0.083 0.24-0.11 0.52-0.25 0.72-0.003 0.01 0.003 0.02 0 0.03h-0.031c-0.885 1.27-2.76 1.98-3.688 2.41-0.116 0.05-0.219 0.1-0.312 0.15-0.093 0.06-0.149 0.12-0.25 0.26-0.051 0.06-0.131 0.16-0.125 0.31 0.006 0.14 0.083 0.27 0.156 0.34 0.146 0.14 0.253 0.16 0.375 0.19 0.489 0.12 1.358 0.17 3.062 0.25l0.313 0.03 0.125-0.31c0.341-0.82 0.668-1.94 1.062-3.13h0.032c0.003-0.01-0.004-0.02 0-0.03h0.031c0.023-0.03 0.009-0.09 0.031-0.12 0.09-0.27 0.189-0.54 0.282-0.82 0.095-0.27 0.252-0.5 0.281-0.81 0.002-0.02-0.002-0.04 0-0.06 0.007-0.02 0.024-0.04 0.031-0.06 0.006-0.02-0.006-0.05 0-0.07 1.074-3.05 2.555-6.55 4.781-9.059 2.254-2.545 5.239-4.106 9.594-3.375h0.125c2.681-0.357 10.105-1.293 15.375-1.312 2.17-0.008 12.791 0.493 10.531 3.312-0.942 2.384-2.881 6.194-3.406 8.434-2.682 10.98 1.194 22.46 3.5 33.1-0.43 0.64-0.81 1.11-1.062 1.31-0.276 0.21-0.343 0.18-0.407 0.16-0.063-0.03-0.208-0.18-0.343-0.47-0.136-0.29-0.258-0.68-0.376-1.1-0.117-0.41-0.245-0.85-0.374-1.25-0.13-0.39-0.253-0.74-0.5-1.03-0.124-0.14-0.283-0.26-0.5-0.31-0.218-0.05-0.466-0.01-0.657 0.09-0.201 0.12-0.381 0.44-0.562 0.66-1.398-4.1-2.642-6.87-3.813-9.5-1.252-2.81-2.439-5.73-3.718-10.84-0.003-0.02 0.002-0.02 0-0.03-0.143-0.97-0.274-1.66-0.376-2.13-0.051-0.24-0.107-0.44-0.156-0.59s-0.058-0.24-0.187-0.38c-0.065-0.07-0.194-0.19-0.375-0.19s-0.312 0.12-0.375 0.19c-0.127 0.15-0.154 0.23-0.188 0.34-0.067 0.23-0.103 0.52-0.156 0.82s-0.126 0.6-0.187 0.87c-0.014 0.06-0.017 0.07-0.032 0.13-0.069-0.13-0.098-0.13-0.187-0.38v-0.03l-0.031-0.03c-1.686-3.11-3.867-4.79-6.126-5.31-2.258-0.53-4.549 0.11-6.437 1.47-3.777 2.71-6.025 8.39-3.531 13.9 0.581 1.44 0.892 2.5 1 3.28 0.108 0.79-0.01 1.25-0.125 1.41s-0.219 0.2-0.531 0.13c-0.313-0.08-0.742-0.34-1.188-0.72-0.892-0.78-1.801-2.08-2.156-3.47-0.356-1.39-0.219-2.81 0.968-4.03l-0.562-0.69c-0.309 0.21-0.551 0.36-0.719 0.41-0.168 0.04-0.24 0.01-0.281 0-0.041-0.02-0.101-0.06-0.156-0.19-0.056-0.13-0.103-0.34-0.125-0.6-0.087-1.01 0.236-2.77 0.593-4.34 0.179-0.79 0.353-1.55 0.5-2.16 0.148-0.6 0.258-1.01 0.282-1.31 0.006-0.07 0.057-0.12-0.032-0.31-0.044-0.1-0.218-0.28-0.406-0.28s-0.263 0.08-0.312 0.12c-0.099 0.09-0.141 0.15-0.188 0.22s-0.099 0.15-0.156 0.25c-0.227 0.42-0.582 1.17-1.125 2.38v0.06c-0.309 1-0.65 1.65-0.937 2.03-0.288 0.38-0.505 0.49-0.719 0.5-0.215 0.01-0.478-0.09-0.813-0.31-0.334-0.22-0.704-0.55-1.094-0.91-0.779-0.71-1.624-1.54-2.656-1.78-0.516-0.12-1.097-0.07-1.625 0.25-0.461 0.28-0.866 0.83-1.281 1.5-0.843 0.03-1.56 0.08-2.062 0.16-0.549 0.08-0.926 0.19-1.219 0.4-0.147 0.11-0.267 0.24-0.313 0.44-0.045 0.2-0.01 0.42 0.063 0.56 0.146 0.29 0.407 0.49 0.687 0.72 0.561 0.46 1.323 0.97 2.032 1.56 0.708 0.59 1.337 1.26 1.562 1.91 0.252 0.73 0.123 1.46-0.969 2.47-1.545 0.32-2.74 0.58-3.562 0.78-0.852 0.2-1.321 0.32-1.625 0.47-0.076 0.04-0.152 0.07-0.25 0.19-0.049 0.05-0.091 0.17-0.094 0.31s0.059 0.28 0.125 0.34c0.133 0.14 0.235 0.14 0.313 0.16 0.077 0.02 0.134 0.02 0.218 0.03 0.339 0.04 0.855 0.05 1.5 0.06 1.291 0.02 3.1 0.02 4.906 0.16 1.807 0.14 3.6 0.44 4.719 0.97l0.063 0.03h0.062c3.614 0.6 5.785 2.17 7.282 4.34 1.496 2.18 2.284 4.97 2.968 7.94 0.685 2.97 1.275 6.12 2.406 8.97 1.096 3.09 3.174 5.28 5.75 7.19l0.563-0.66c-4.591-5.82-8.135-14.86-8.125-23.16v-0.09l-0.062-0.13c-0.496-0.93-0.426-3.08 0-5.46 0.425-2.39 1.165-5.02 1.781-7.13 0.307-1.05 0.585-1.96 0.781-2.65 0.098-0.35 0.167-0.65 0.219-0.88 0.026-0.12 0.05-0.22 0.062-0.31s0.033-0.17 0-0.31c-0.016-0.08-0.063-0.18-0.219-0.29-0.155-0.1-0.346-0.07-0.437-0.03-0.183 0.09-0.22 0.14-0.281 0.22-0.122 0.16-0.255 0.37-0.438 0.69-0.366 0.65-0.924 1.73-1.718 3.31l-0.032 0.06v0.07c-0.31 2.07-0.65 3.19-0.875 3.62-0.169-0.49-0.311-1.49-0.343-2.62-0.032-1.12 0.053-2.41 0.25-3.57 0.001-0.01-0.002-0.02 0-0.03 1.166-2.93 2.695-4.38 4.312-4.84 1.637-0.47 3.471 0.06 5.281 1.28 3.621 2.45 6.982 7.72 7.875 12.5v0.03c1.093 4.07 2.901 10.09 5.844 14.28 1.471 2.1 3.253 3.76 5.406 4.41 2.093 0.63 4.516 0.22 7.188-1.5 14.83 2.9 29.647 5.92 44.376 9.28h0.03c1.03 0.14 3.33 0.86 5.91 1.75 2.57 0.89 5.48 1.94 7.81 2.78 1.16 0.42 2.18 0.8 2.97 1.06 0.39 0.14 0.73 0.24 1 0.32 0.26 0.07 0.42 0.12 0.62 0.12 0.05 0 0.12 0.01 0.22-0.03 0.05-0.02 0.12-0.05 0.19-0.13 0.07-0.07 0.12-0.18 0.12-0.28 0.01-0.2-0.08-0.29-0.12-0.34s-0.06-0.06-0.09-0.09c-0.16-0.13-0.37-0.26-0.69-0.44-0.64-0.36-1.73-0.92-3.38-1.72-0.25-0.36-0.57-0.68-1.03-0.97-0.56-0.35-1.23-0.68-1.97-1-1.48-0.64-3.2-1.23-4.5-1.75-0.64-0.26-1.19-0.49-1.53-0.69-1.72-1.5-1.84-2.21-2.84-6.72-0.61-2.19-1.1-4.83-1.16-7.12s0.33-4.26 1.19-5.16c4.37-0.6 12.1 1.47 15.78 1.28 0.4-0.01 0.49-0.79 0.25-0.84-2.97-0.73-11.88-1.58-14.72-2.81-0.8-0.42-1.46-0.89-1.87-1.38-0.41-0.48-0.57-0.93-0.47-1.47 1.48-8.13-1.89-16.6 0.94-24.53 0.67-1.38 1.69-2.39 3.21-2.97 15.84 0.65 31.71 3.02 47.57 4.6h0.06c13.12 2.38 27 6.87 39.81 10.62-11.46 4.34-8.84 18.45-11.59 29.16-0.24 2.04-0.11 4.06 1.06 5.41 0.1 0.12 0.22 0.24 0.31 0.37 0.12 1.18 0.44 2.19 0.91 3.06-0.26 0.58-0.9 1.02-1.72 1.32-0.86 0.31-1.85 0.49-2.56 0.62-0.36 0.07-0.63 0.1-0.88 0.22-0.06 0.03-0.11 0.08-0.18 0.16-0.08 0.07-0.16 0.21-0.16 0.37s0.06 0.27 0.12 0.35c0.07 0.07 0.13 0.11 0.19 0.15 0.26 0.16 0.62 0.29 1.22 0.47 0.41 0.12 1.11 0.3 1.75 0.47-0.65 0.68-1.28 1.34-1.78 1.62-0.66 0.37-1.17 0.44-1.63 0.32-0.91-0.25-1.79-1.39-2.56-3.07-0.77-1.67-1.46-3.82-2.22-5.84-0.74-1.97-1.56-3.77-2.65-5.03-0.1-1.53-1.14-3.28-2.5-5.13-5.12-8.47-10.77-12.63-17.78-16.62-9.5-5.51-20.94-0.21-24.54 9.75-3.53 8.93-4.31 19.91 0.72 28.22-21.99-4.29-43.826-11.42-66.248-14.53-0.042-0.01-0.082-0.03-0.124-0.04-0.021 0-0.043 0.01-0.063 0l-0.187 0.88c0.019 0.01 0.043-0.01 0.062 0 22.054 6.47 44.81 10.22 66.81 16.59 2.92 12.31 9.65 25.88 22.72 29.82l0.03 0.03h0.06l2.19 0.18h2.35l0.06-0.03c4.82-1.45 10.32-2.42 15.34-4.28 5.03-1.86 9.6-4.62 12.47-9.59l0.06-0.13v-0.12c-0.15-2.33 0.77-3.61 2.25-4.38 1.49-0.77 3.61-0.93 5.72-0.75 2.12 0.19 4.21 0.73 5.66 1.32 0.72 0.29 1.28 0.63 1.56 0.87 0.12 0.11 0.17 0.16 0.19 0.19l-0.31 0.34 0.46 0.28c1.11 0.68 2.73 0.45 4.72-0.06 2-0.5 4.37-1.34 6.88-2.22 5.02-1.75 10.63-3.55 14.56-2.9h0.13c11.37-1.68 21.65-7.44 32.28-11.1 0.73-0.28 2.37-0.75 4.25-1.25 1.87-0.5 4-1.03 5.84-1.56s3.31-0.99 4.06-1.44c0.19-0.11 0.35-0.2 0.47-0.43 0.06-0.12 0.1-0.31 0.03-0.47-0.06-0.16-0.18-0.26-0.28-0.32-0.2-0.11-0.41-0.18-0.68-0.21-0.28-0.04-0.63-0.06-1.07-0.07-1.49-0.07-2.48-0.25-3.06-0.47-0.29-0.11-0.48-0.22-0.56-0.31s-0.07-0.12-0.07-0.19c0.01-0.13 0.22-0.5 0.72-0.9 0.5-0.41 1.23-0.87 2.1-1.32 1.73-0.88 3.99-1.75 6.09-2.37 2.04-0.6 3.91-0.92 4.94-0.87 0.82 1.22 1.56 1.89 2.37 2 0.88 0.11 1.59-0.44 2.19-1.13s1.16-1.56 1.72-2.37c0.55-0.8 1.13-1.52 1.72-1.91 0.01-0.01 0.02-0.03 0.03-0.03 2.3-0.41 3.64-0.83 4.38-1.5 0.37-0.35 0.6-0.78 0.65-1.22s-0.06-0.9-0.19-1.34c-0.5-1.8-1.69-3.93-0.09-7.38l0.19-0.44-0.44-0.15c-8.2-2.84-15.75-9.56-22.56-16.07-1.94-6.68-6.88-9.71-12.56-11.5-5.73-1.8-12.27-2.44-17.5-4.5-13.87-5.216-28.84-5.919-43.41-6.246-0.02-0.004-0.04 0.003-0.06 0-5.53-0.973-11.07-1.608-16.66-2.25-5.46-0.868-8.97-4.397-13.07-8.271-1.95-0.173-9.73-9.721-19.09-15.385-9.84-5.963-19.15-6.311-35.62-6.063zm32.56 6.083c9.66 5.624 15.25 11.894 26.03 22.042-19.88-1.089-39.53 2.004-59.25 3.156-3.25 0.161-6.51 0.347-9.75 0.344-4.27-4.426-11.92-20.952-10.5-25.344 17.35-3.558 36-3.313 53.47-0.198zm-60.249 3.292c2.979 8.466 8.139 16.347 9.939 24.812-7.6-1.064-31.847 1.381-39.595-3.718-1.581-6.26 2.926-16.062 5.781-21.156 5.193-1.198 17.739-4.429 23.875 0.062zm-33.687 1.844c5.384-1.309-1.428 13.288-2.688 17.187-4.359-0.205-9.051-0.047-13.437-0.719-3.184-0.487-4.478-2.816-2.594-4.5 4.912-4.388 12.548-10.469 18.719-11.968zm116.79 19.75c0.01 0 0.02-0.001 0.03 0 12.19 0.762 24.39 2.939 36.47 5.066 0.03 0.01 0.06 0.02 0.09 0.03 11.69 4.08 30.75 6.12 41.34 11.47-6.67 4.19-21.83 2.41-29.43 4.03-12.33 2.62-24.57-3.49-36.32-6.69v0.03c-11.8-3.61-23.26-6.43-34.65-7.37-2.05-0.05-4.74-0.28-7.53-0.6-4.43-0.51-8.05-1.19-10.79-1.779 13.63-1.617 27.11-4.141 40.79-4.187zm38.59 3.125c10.04 1.027 20.08 1.951 29.69 5.121 0.03 0.01 0.06 0.02 0.09 0.04 1.37 0.76 3.4 1.29 5.72 1.74 2.36 0.47 4.98 0.85 7.34 1.32s4.49 1.05 5.75 1.78c0.64 0.36 1.05 0.76 1.22 1.16 0.14 0.31 0.02 0.7-0.12 1.12-3.07 0.45-5.2 1.79-8 0.38-10.25-5.17-26.14-6.32-35.44-10.6h-0.03c-2.06-0.795-4.13-1.472-6.22-2.061zm-155 0.375c10.332 3.516 38.451-0.752 48.911 4.436 2.46 8.12-0.31 16.54 0.46 24.85 0.27 1.09-2.63 0.9-3.81 0.96-12.878 0.7-40.419-5.33-47.155-6.72-1.486-0.3-1.483-0.37-1.656-1.74-2.041-7.65-0.317-14.72 3.25-21.786zm209.53 13.216c0.1 0.66 0.42 1.3 0.88 1.94 0.9 1.28 2.35 2.56 4.03 3.87 3.34 2.63 7.53 5.35 9.56 7.76l0.06 0.06 0.06 0.03c1.19 0.73 1.99 1.36 2.5 1.87 0.52 0.52 0.7 0.9 0.72 1.13s-0.06 0.38-0.34 0.59c-0.29 0.22-0.79 0.45-1.38 0.63-1.17 0.35-2.77 0.59-4.25 0.84s-2.79 0.48-3.62 1l-0.38 0.22 0.22 0.37c0.06 0.12 0.06 0.14 0.03 0.22-0.02 0.08-0.11 0.21-0.28 0.35-0.33 0.28-0.97 0.6-1.84 0.9-1.74 0.6-4.36 1.15-7.22 1.63-5.71 0.95-12.42 1.68-15.75 2.4-0.01 0.01-0.02 0-0.03 0-2.29 0.37-4.61 0.71-6.91 1.07-2.57 0.3-4.44 2.71-5.62 4.37-0.43 0.44-1.9 1.01-3.63 1.35-1.73 0.33-3.73 0.52-5.34 0.56-0.81 0.02-1.51 0.02-2.03-0.03-0.26-0.03-0.49-0.09-0.63-0.13-0.07-0.02-0.1-0.05-0.12-0.06l-0.16-0.16-0.25 0.03c-8.69 1.14-25.18 0.22-33.62-2.31 2.86-10.61-2.18-21.33 12.62-25.78h0.03c11.51 4.72 24.07 12.35 32.88 21.22 1.49 1.19 2.69 1.44 2.97 0.37-2.76-1.6-6.98-5.24-9.69-7.71-4.05-3.69-8.12-7.71-12.5-10.41 9.36-4.28 25.31-2.98 36.5-5.5 6.76-1.49 17.97 11.48 22.78 15 0.28 0.2 0.59 0.36 0.87 0.53 0.49 0.05 0.6-0.41 0.47-0.59-4.47-5.8-11.5-9.58-15.4-15.85 0.41-1.49 4.29-4.71 3.81-1.78zm2.59-0.28c0.51-0.13 1.21 0.38 2.41 1.66 1.21 1.28 2.67 3.64 2.14 3.98-0.51 0.33-3.24-2.67-3.48-3.01-0.26-0.35-1.82-2.43-1.07-2.63zm-64.28 7.75c-5.84 0.74-6.93 7.71-4.53 12 1.29 1.9 3.36 3.33 5.69 4.6 5.4 2.23 13.92 5.85 18.69 6.9-1.19-0.72-6.33-2.79-8.78-3.87-2.46-1.09-4.95-2.37-6.07-3.53-0.56-0.59-0.75-1.06-0.62-1.5 3.47-2.65 3.36-5.83 1.34-10.32-1.32-2.43-3.45-4.22-5.72-4.28zm-190.62 0.56c0.521-0.02 1.123 0.06 1.718 0.25 2.32 0.76 4.683 3.15 4.188 7.5-0.23 0.08-0.461 0.14-0.813 0.07-0.446-0.1-0.99-0.32-1.531-0.57-0.984-0.45-1.972-0.95-2.906-1.12-0.013-0.01-0.019-0.02-0.032-0.03-1.407-1.41-2.19-2.6-2.5-3.5-0.211-0.61-0.204-1.08-0.093-1.44 0.11-0.36 0.32-0.61 0.656-0.81s0.791-0.33 1.313-0.35zm190.25 1.57c2.3-0.22 4.71 2.37 5.37 5.75 0.67 3.38-0.66 6.28-2.97 6.5-2.3 0.21-4.71-2.34-5.37-5.72-0.67-3.38 0.66-6.32 2.97-6.53zm-166.78 0.25l-0.156 0.03c-2.645 0.65-4.473 2.32-5.562 4.5-1.09 2.18-1.473 4.88-1.344 7.65 0.258 5.55 2.526 11.48 5.718 14.6l0.094 0.09 0.125 0.03c1.439 0.32 2.69 0.2 3.719-0.31s1.83-1.41 2.406-2.5c1.154-2.18 1.485-5.26 1.313-8.5-0.173-3.24-0.865-6.64-1.938-9.47-1.072-2.83-2.47-5.1-4.219-6.03l-0.156-0.09zm111.62 1.93c0.76 0.02 1.51 0.11 2.28 0.25 15 4.74 23.62 17.77 28.19 31.88 1.53 4.56 3.49 8.88 8.22 11.28 1.41 0.77 1.99 1.5 2.19 2.16 0.2 0.65 0.02 1.29-0.28 1.93-0.31 0.65-0.76 1.25-1.04 1.82-0.14 0.28-0.25 0.57-0.22 0.9 0.02 0.2 0.23 0.34 0.38 0.5-0.11 4.64-2.89 8.18-6.75 10.85-3.88 2.68-8.83 4.42-13.09 5.4h-0.04v0.03c-4.35 1.47-8.9 2.56-13.4 1.53-7.68-3.08-12.96-9.19-16.22-16.5-3.27-7.32-4.49-15.82-3.94-23.56v-0.09c-0.59-5.01 1.86-10.23 5.03-14.66s7.03-8.03 9.1-9.81l-0.44-0.75c-0.04 0.02-0.08 0.04-0.13 0.06-5.83 2.43-9.67 7.11-12.09 12.6-2.26 5.11-3.24 10.88-3.59 16.28-1.39-2.5-1.85-6.51-1.41-10.81 0.51-4.94 2.1-10.11 4.28-13.47v-0.03c2.64-4.79 7.66-7.88 12.97-7.79zm-94.03 0.53c0.25 0.01 0.54 0.04 0.875 0.13l46.565 6.72c1.93 0.28 2.38 0.64 3.09 1.28 0.18 1.77 0.86 3.71 1.1 5.81 0.44 4.03 1.51 11.13-0.07 12.5-8.51-1.25-42.195-4.12-49.122-11.65-1.364-1.73-2.155-4.02-2.657-6.6-0.44-2.26-0.668-4.7-0.875-7.12-0.04-0.73 0.345-1.08 1.094-1.07zm-18.969 0.57c1.352 0.06 2.403 0.82 3.25 2.09 0.969 1.46 1.626 3.6 1.969 5.94 0.676 4.61 0.08 10.02-1.156 12.66-0.967 0.59-1.792 0.87-2.5 0.81-0.743-0.06-1.409-0.42-2-1.03-1.183-1.22-2.044-3.5-2.532-6.13-0.487-2.63-0.592-5.59-0.374-8.19 0.211-2.52 0.738-4.68 1.468-5.78 0.469-0.17 0.894-0.3 1.282-0.34 0.205-0.02 0.4-0.04 0.593-0.03zm248.1 8.09c3.73 1.39 5.89 3.77 6.65 6.72 0.74 2.86 0.08 6.29-1.84 9.84-1.45-1.14-3.14-1.66-4.94-1.62-2.01 0.04-4.15 0.61-6.34 1.37-4.4 1.52-9.02 3.73-12.85 3.88h-0.03l-0.06 0.03c-0.63 0.19-1.04 0.19-1.28 0.12-0.21-0.05-0.3-0.2-0.38-0.37 0.16-0.83 0.19-1.66 0.19-2.47 0-0.15 0.04-0.32 0.03-0.47 0.34-1.32 0.81-2.8 1.09-4.15 0.15-0.68 0.24-1.33 0.22-1.91-0.01-0.58-0.12-1.14-0.46-1.56l-0.1-0.13-0.16-0.03c-1.55-0.31-2.97-0.86-4.03-1.47s-1.76-1.3-1.97-1.78c-0.1-0.24-0.09-0.4-0.03-0.53 0.07-0.13 0.22-0.29 0.6-0.44 0.74-0.29 2.23-0.42 4.56-0.15h0.06c7.15-0.26 14.37-4.41 21.07-4.88zm3.5 0.28c2.17 0.35 4.33 1.06 6.4 2.82l0.6 0.5 0.12-0.79c0.13-0.74 0.34-1.09 0.41-1.15 0.02 0.01 0.05 0.01 0.12 0.09 0.36 0.4 0.89 1.75 1.06 3.28 0.18 1.54 0.05 3.28-0.59 4.66-0.55 1.19-1.57 2-3.06 2.37 1.06-3.39 1.17-6.16-0.1-8.25-0.94-1.55-2.76-2.62-4.96-3.53zm-36.69 5.88c0.5-0.03 0.99-0.01 1.47 0.03 1.92 0.15 3.64 0.77 5.09 1.75 2.89 1.95 4.74 5.3 4.91 8.97-0.29 1.14-0.44 2.15-0.25 3 0 0.01-0.01 0.02 0 0.03v0.03c-0.37 1.72-1.15 3.42-2.35 5.06-1.58-1.19-3.37-1.77-5.28-1.84-2.07-0.08-4.26 0.33-6.5 0.91-4.49 1.15-9.19 2.93-13.28 2.84h-0.06c-8.77 1.54-17.43-1.05-26.28-1.97h-0.04c-3.36-0.1-6.98-0.1-10.09-0.66-3.09-0.55-5.62-1.65-6.94-3.84 0.19-0.87-0.09-1.9-0.97-3.19 0-0.01 0.01-0.02 0-0.03-0.09-1.12 0.05-2.46 0.35-3.97 15.3-0.76 30.89 3.12 46.44 0.22l0.18-0.03 0.1-0.19c0.87-1.4 1.59-3.08 2.78-4.31s2.81-2.04 5.65-1.63h0.13l0.09-0.03c1.7-0.71 3.33-1.08 4.85-1.15zm-97.41 2.28c-1.86 0.04-3.79 0.74-5.72 2.16h-0.03l-0.03 0.03c-4.85 5.15-6.41 12.85-5.12 19.97 1.28 7.11 5.42 13.71 12.09 16.56l0.06 0.03h0.06c2.79 0.4 5.13-0.18 7-1.41 1.88-1.22 3.28-3.07 4.29-5.22 2-4.28 2.46-9.7 1.81-13.84v-0.03c-0.15-3.76-1.77-8.3-4.31-11.94-2.56-3.65-6.08-6.4-10.1-6.31zm-98.686 1.06c0.864-0.01 1.973 0.17 2.687 0.44 0.357 0.13 0.622 0.31 0.688 0.4 0.033 0.05 0.032 0.05 0.031 0.07 0 0-0.029 0.02-0.031 0.03l-1.781 0.37c-0.983-0.34-1.726-0.66-2.157-0.9-0.351-0.2-0.398-0.25-0.437-0.28 0.205-0.07 0.568-0.12 1-0.13zm98.526 1.03c0.22-0.01 0.44-0.01 0.66 0 1.63 0.07 3.45 0.8 5.34 2.44 0.03 0.02 0.04 0.04 0.07 0.06 3.39 4.1 5.95 10.18 6.43 16.1 0.49 5.91-1.06 11.61-5.81 15.15-2.11 0.96-3.99 0.99-5.72 0.41-1.72-0.59-3.28-1.8-4.62-3.38-2.68-3.15-4.46-7.75-4.97-11.28v-0.06l-0.03-0.03c-1.38-3.5-0.9-8.5 0.91-12.53 0.9-2.02 2.12-3.8 3.56-5.03 1.25-1.08 2.66-1.75 4.18-1.85zm-92.089 2.63l-0.875 0.09c0.001 0.04 0 0.06 0 0.09 0.041 3.13-1.019 5.27-2.906 6.63-5.188 3.74-12.009 3.39-18.062 4.63l-2.626 1.84c8.64 0.32 16.687-0.68 23.126-6.53 1.599-1.46 1.864-3.98 1.343-6.66-0.006-0.03 0.007-0.06 0-0.09zm207.56 10.5c0.61-0.03 1.1 0.25 1.6 0.84-13.11 4.94-27.12 7.81-41.03 10-1.48 0.26-2.6 0.48-3.38 0.66-0.78 0.17-1.2 0.29-1.5 0.44-0.07 0.03-0.16 0.08-0.25 0.18-0.04 0.05-0.07 0.1-0.09 0.22s0 0.29 0.06 0.38c0.12 0.17 0.23 0.16 0.31 0.18 0.08 0.03 0.14 0.06 0.22 0.07 0.32 0.04 0.76 0.02 1.35 0 1.99-0.09 5.28-0.54 7.74-1.03-0.17 0.07-0.21 0.13-0.43 0.21-1.39 0.53-3.57 1.14-5.97 1.82-4.81 1.35-10.53 2.83-13.1 3.93-5.32 2.33-11.05 0.19-16.81-0.31-1.64-0.12-2.82-0.34-3.62-0.59-0.8-0.26-1.18-0.55-1.28-0.75s-0.06-0.39 0.21-0.75c0.28-0.36 0.77-0.8 1.44-1.22 2.69-1.69 7.88-3.32 10.5-3.34h0.25l0.13-0.22c0.14-0.23 0.25-0.42 0.18-0.72-0.03-0.15-0.13-0.32-0.24-0.41-0.12-0.08-0.24-0.1-0.35-0.12-0.45-0.08-0.92 0.02-1.59 0.18-1.35 0.33-3.3 0.97-5.35 1.44-2.04 0.47-4.19 0.79-5.9 0.53s-2.91-1.01-3.41-2.78l-0.06-0.16-0.16-0.09c-2-1.22-2.76-2.17-2.84-2.65-0.04-0.25 0.02-0.4 0.22-0.63 0.19-0.23 0.56-0.49 1-0.72 0.88-0.46 2.11-0.87 3.28-1.34 1.06-0.43 2.04-0.91 2.69-1.6 4.62 0.89 10.64 1.43 16.25 2.07 4.81 0.54 8.99 1.23 11.9 2.18-0.85 0.16-1.81 0.28-2.5 0.47-1.21 0.33-2.09 0.66-2.59 1-0.13 0.09-0.25 0.17-0.35 0.31-0.04 0.08-0.09 0.19-0.09 0.32s0.08 0.25 0.16 0.34c0.15 0.18 0.28 0.22 0.43 0.25 0.16 0.03 0.33 0.03 0.54 0.03 0.82 0 2.26-0.18 4.5-0.65 0.02-0.01 0.03 0 0.06 0 11.72-0.78 14.35-2.34 24.94-4.91l0.09-0.03 0.09-0.06c1.48-1.13 2.94-1.47 4.44-1.47s3.04 0.36 4.53 0.75c1.49 0.38 2.95 0.78 4.35 0.75 1.17-0.03 2.27-0.5 3.25-1.41 0.03 0.07 0.01 0.16 0.06 0.22 0.19 0.24 0.5 0.37 0.78 0.37 0.55 0.01 1.05-0.27 1.63-0.59 1.15-0.65 2.58-1.54 3.71-1.59zm-25.4 11.31c-1.22 0.62-3.04 1.37-4.75 1.69l-0.03 0.03-1.47 0.44c-0.99 0.25-1.04 0.19-1.72 0.34 1.69-0.64 3.4-1.34 5.25-1.72h0.03l0.03-0.03c1.45-0.5 1.97-0.59 2.66-0.75zm-4.57 2.53s0.01 0.03 0 0.03c-0.27 0.09-0.56 0.14-0.84 0.22l0.84-0.25z"/>
    <path id="path3175" fill-rule="evenodd" d="m225.15 311.72c-8.23-1.09-16.62 3.5-20.66 10.65-5.09 7.76-6.81 17.95-3.54 26.75 3.17 0.55 0.55-3.91 0.33-5.53-0.44-2.78-0.16-5.69 0.19-8.51 1.3-8.23 6.08-16.33 13.72-20.09 8.91-3.48 19.07-0.6 26.61 4.76 7.66 5.37 12.95 14.07 14.04 23.38 2.43-1.08 1.46-4.14 0.61-5.97-1.07-2-1.52-4.23-2.56-6.23-5.55-10.66-16.71-18.28-28.74-19.21z"/>
    <path id="path3177" fill-rule="evenodd" d="m105.38 302.56c-4.73 0.04-10.495 3.84-10.553 8.68 2.621-0.06 2.755-5.32 6.073-5.91 5.17-2.74 12.02-1.24 15.47 3.54 5.15 6.56 7.2 14.98 7.72 23.16 3.44-1.67-0.09-6.76 0.15-9.76-1.76-7.18-5.14-14.75-11.74-18.66-2.2-1.07-4.72-1.34-7.12-1.05z"/>
  </g>
  <metadata>
    <rdf:RDF>
      <cc:Work>
        <dc:format>image/svg+xml</dc:format>
        <dc:type rdf:resource="http://purl.org/dc/dcmitype/StillImage"/>
        <cc:license rdf:resource="http://creativecommons.org/licenses/publicdomain/"/>
        <dc:publisher>
          <cc:Agent rdf:about="http://openclipart.org/">
            <dc:title>Openclipart</dc:title>
          </cc:Agent>
        </dc:publisher>
        <dc:title>car outline modified</dc:title>
        <dc:date>2008-02-14T01:56:50</dc:date>
        <dc:description>a slightly redrawn sketch of the car outline by jeanmichel</dc:description>
        <dc:source>http://openclipart.org/detail/13886/car-outline-modified-by-molumen</dc:source>
        <dc:creator>
          <cc:Agent>
            <dc:title>molumen</dc:title>
          </cc:Agent>
        </dc:creator>
        <dc:subject>
          <rdf:Bag>
            <rdf:li>car</rdf:li>
            <rdf:li>clip art</rdf:li>
            <rdf:li>clipart</rdf:li>
            <rdf:li>image</rdf:li>
            <rdf:li>media</rdf:li>
            <rdf:li>outline</rdf:li>
            <rdf:li>png</rdf:li>
            <rdf:li>public domain</rdf:li>
            <rdf:li>remix</rdf:li>
            <rdf:li>stylized</rdf:li>
            <rdf:li>svg</rdf:li>
            <rdf:li>transpotation</rdf:li>
            <rdf:li>vehicle</rdf:li>
          </rdf:Bag>
        </dc:subject>
      </cc:Work>
      <cc:License rdf:about="http://creativecommons.org/licenses/publicdomain/">
        <cc:permits rdf:resource="http://creativecommons.org/ns#Reproduction"/>
        <cc:permits rdf:resource="http://creativecommons.org/ns#Distribution"/>
        <cc:permits rdf:resource="http://creativecommons.org/ns#DerivativeWorks"/>
      </cc:License>
    </rdf:RDF>
  </metadata>
</svg>
