<svg id="Layer_1" enable-background="new 0 0 511.999 511.999" viewBox="0 0 511.999 511.999" xmlns="http://www.w3.org/2000/svg"><g><g><path d="m435.519 213.511c6.373 0 10.622-4.25 10.622-10.622v-127.47c0-29.742-23.37-53.112-53.112-53.112h-339.917c-29.742 0-53.112 23.37-53.112 53.112v361.161c0 29.742 23.37 53.112 53.112 53.112h339.917c29.742 0 53.112-23.37 53.112-53.112v-63.734c-.001-6.373-4.25-10.622-10.623-10.622s-10.622 4.25-10.622 10.622v63.734c0 16.996-14.872 31.867-31.867 31.867h-339.917c-16.996 0-31.867-14.872-31.867-31.867v-308.048h403.651v74.357c.001 6.372 4.25 10.622 10.623 10.622zm-382.407-127.469c-6.373 0-10.622-4.25-10.622-10.622 0-6.374 4.248-10.622 10.622-10.622 6.373 0 10.622 4.25 10.622 10.622s-4.249 10.622-10.622 10.622zm42.489 0c-6.373 0-10.622-4.25-10.622-10.622 0-6.374 4.25-10.622 10.622-10.622s10.622 4.25 10.622 10.622-4.249 10.622-10.622 10.622zm42.49 0c-6.373 0-10.622-4.25-10.622-10.622 0-6.374 4.25-10.622 10.622-10.622s10.622 4.25 10.622 10.622-4.249 10.622-10.622 10.622z"/></g></g><g><g><path d="m364.468 258.867c12.8 0 19.012 7.085 21.333 10.667 5.323 8.215 8.771 9.844 14.448 7.715 7-2.625 7.375-6 6.885-9.848-2.133-17.067-19.2-29.866-42.667-29.866s-42.667 14.934-42.667 32 12.85 27.199 38.449 31.465l4.217.535c17.067 2.133 21.283 6.09 21.221 11.465-.078 6.745-10.554 12.001-23.353 12.001-12.801 0-18.959-6.876-21.333-10.667-3.908-6.238-6.399-10.667-10.667-10.667-6.399 0-11.834 5.582-10.667 10.667 3.582 16.291 19.2 29.866 42.667 29.866s42.667-14.934 42.667-32c0-17.067-12.526-27.435-38.127-31.701l-2.406-.298c-19.2-2.133-21.344-7.952-21.333-10.667.017-4.267 8.533-10.667 21.333-10.667z"/></g></g><g><g><path d="m469.186 258.867c12.8 0 19.012 7.085 21.333 10.667 5.323 8.215 8.771 9.844 14.448 7.715 7-2.625 7.375-6 6.885-9.848-2.133-17.067-19.2-29.866-42.667-29.866s-42.667 14.934-42.667 32 12.85 27.199 38.449 31.465l4.217.535c17.067 2.133 21.283 6.09 21.221 11.465-.078 6.745-10.554 12.001-23.353 12.001-12.801 0-18.959-6.876-21.333-10.667-3.908-6.238-6.399-10.667-10.667-10.667-6.399 0-11.834 5.582-10.667 10.667 3.582 16.291 19.2 29.866 42.667 29.866s42.667-14.934 42.667-32c0-17.067-12.526-27.435-38.127-31.701l-2.406-.298c-19.2-2.133-21.344-7.952-21.333-10.667.017-4.267 8.533-10.667 21.333-10.667z"/></g></g><g><g><path d="m286.804 300.348c-6.372 0-10.622 4.25-10.622 10.622 0 6.373-4.25 10.622-10.622 10.622h-21.244c-6.373 0-10.622-4.25-10.622-10.622v-42.49c-.001-6.372 4.249-10.622 10.622-10.622h21.244c6.373 0 10.622 4.25 10.622 10.622 0 6.373 4.25 10.622 10.622 10.622s10.622-4.25 10.622-10.622c0-16.996-14.872-31.867-31.867-31.867h-21.244c-16.996 0-31.867 14.872-31.867 31.867v42.49c0 16.996 14.872 31.867 31.867 31.867h21.244c16.996 0 31.867-14.872 31.867-31.867 0-6.373-4.25-10.622-10.622-10.622z"/></g></g><g/><g/><g/><g/><g/><g/><g/><g/><g/><g/><g/><g/><g/><g/><g/></svg>