<svg id="svg" version="1.1" xmlns="http://www.w3.org/2000/svg" xmlns:xlink="http://www.w3.org/1999/xlink" width="400" height="400" viewBox="0, 0, 400,400"><g id="svgg"><path id="path0" d="M183.983 13.504 C 183.295 14.323,182.807 15.190,180.382 19.897 C 179.106 22.374,177.948 24.545,177.808 24.722 C 177.668 24.899,177.625 25.158,177.712 25.299 C 177.799 25.439,177.724 25.603,177.546 25.663 C 177.107 25.809,178.995 30.028,180.341 31.906 C 180.902 32.690,181.775 34.063,182.281 34.959 L 183.201 36.587 182.401 37.774 C 181.960 38.426,181.600 39.074,181.600 39.213 C 181.600 39.353,181.506 39.467,181.391 39.467 C 181.135 39.467,180.120 41.122,180.206 41.400 C 180.239 41.510,180.147 41.600,180.000 41.600 C 179.853 41.600,179.733 41.780,179.733 42.000 C 179.733 42.220,179.613 42.400,179.467 42.400 C 179.320 42.400,179.200 42.565,179.200 42.767 C 179.200 42.969,179.023 43.281,178.807 43.461 C 178.591 43.640,178.338 44.195,178.244 44.693 C 178.151 45.192,177.967 45.600,177.837 45.600 C 177.707 45.600,177.600 45.762,177.600 45.959 C 177.600 46.156,177.420 46.679,177.200 47.119 C 176.980 47.560,176.779 48.268,176.752 48.694 C 176.725 49.119,176.595 49.611,176.462 49.788 C 176.329 49.965,176.301 50.240,176.400 50.400 C 176.499 50.560,176.462 50.835,176.320 51.012 C 176.177 51.189,176.000 51.813,175.926 52.400 C 175.282 57.537,175.183 57.723,172.855 58.124 C 171.871 58.293,170.779 58.502,170.427 58.588 C 169.985 58.696,169.846 58.650,169.976 58.439 C 170.080 58.271,170.398 58.133,170.682 58.133 C 171.458 58.133,171.305 57.816,170.129 56.983 C 168.898 56.113,167.386 55.780,166.814 56.255 C 166.263 56.713,165.955 56.429,165.747 55.270 C 165.648 54.718,165.198 53.007,164.748 51.467 C 162.354 43.279,162.400 43.502,162.160 39.107 C 161.901 34.371,161.714 33.874,160.360 34.324 C 158.859 34.824,158.328 43.088,159.404 49.200 C 159.970 52.419,160.575 59.597,160.425 61.333 C 160.351 62.189,159.789 63.892,159.750 63.378 C 159.741 63.256,159.283 63.665,158.733 64.286 C 158.183 64.907,157.463 65.691,157.133 66.029 C 156.803 66.366,156.533 66.698,156.533 66.765 C 156.533 66.943,150.330 73.086,150.240 72.996 C 150.199 72.955,150.522 72.348,150.958 71.647 L 151.751 70.374 151.188 69.583 C 150.618 68.783,149.400 68.000,148.726 68.000 C 148.444 68.000,148.282 67.054,148.033 63.933 C 147.250 54.154,146.688 51.936,144.874 51.480 C 143.816 51.213,143.605 51.228,143.406 51.584 C 143.278 51.813,142.959 52.000,142.698 52.000 C 142.436 52.000,142.139 52.083,142.037 52.185 C 141.519 52.703,138.933 52.545,138.933 51.995 C 138.933 51.695,138.756 51.382,138.540 51.299 C 138.216 51.175,138.208 51.087,138.497 50.798 C 138.849 50.446,141.799 50.797,142.588 51.285 C 142.758 51.389,142.962 51.369,143.042 51.240 C 143.122 51.110,142.441 50.856,141.527 50.676 C 139.610 50.298,135.608 48.946,134.743 48.384 C 134.418 48.173,134.013 48.000,133.843 48.000 C 133.352 48.000,130.301 45.728,129.374 44.672 C 126.726 41.657,124.944 35.648,124.152 27.067 C 123.829 23.571,123.181 17.700,123.056 17.133 C 122.883 16.351,122.185 16.363,121.884 17.153 C 121.349 18.561,120.855 30.133,121.331 30.133 C 121.429 30.133,121.501 31.513,121.489 33.200 C 121.476 34.887,121.530 36.267,121.608 36.267 C 121.686 36.267,121.728 36.957,121.703 37.800 C 121.678 38.643,121.786 39.492,121.945 39.687 C 122.154 39.945,122.139 40.099,121.888 40.254 C 121.647 40.402,121.632 40.521,121.836 40.647 C 122.043 40.776,122.032 40.932,121.797 41.185 C 121.530 41.473,121.437 41.227,121.313 39.904 C 121.193 38.636,121.148 38.999,121.113 41.513 C 121.069 44.599,121.099 44.797,121.717 45.532 C 122.676 46.671,129.553 51.182,132.933 52.889 C 139.479 56.195,140.029 56.933,140.520 63.067 C 141.482 75.081,142.236 79.097,145.251 88.253 C 148.296 97.503,148.646 104.000,146.100 104.000 C 145.923 104.000,145.852 104.074,145.943 104.165 C 146.145 104.367,145.480 105.067,145.086 105.067 C 144.929 105.067,144.800 105.175,144.800 105.308 C 144.800 105.848,139.104 111.210,138.890 110.872 C 138.734 110.626,138.674 110.661,138.671 111.000 C 138.669 111.257,138.474 111.467,138.238 111.467 C 137.967 111.467,137.866 111.613,137.963 111.867 C 138.048 112.087,137.993 112.267,137.843 112.267 C 137.692 112.267,137.637 112.378,137.722 112.514 C 137.806 112.650,137.603 112.800,137.271 112.848 C 136.833 112.910,136.692 113.081,136.759 113.467 C 136.809 113.760,136.761 113.912,136.652 113.804 C 136.542 113.696,136.295 113.816,136.102 114.071 C 135.795 114.475,135.749 114.379,135.742 113.308 C 135.733 112.075,136.545 110.982,138.800 109.186 C 139.312 108.779,139.300 108.767,138.490 108.903 C 137.921 108.998,137.537 108.912,137.309 108.638 C 136.856 108.091,135.612 107.467,134.978 107.467 C 134.695 107.467,134.143 107.047,133.751 106.533 C 133.360 106.020,132.919 105.600,132.771 105.600 C 132.624 105.600,132.177 105.243,131.778 104.806 L 131.053 104.013 127.860 104.145 C 126.104 104.218,124.457 104.343,124.200 104.423 C 123.943 104.504,123.733 104.458,123.733 104.323 C 123.733 104.114,119.722 103.711,117.244 103.671 C 116.727 103.663,116.601 103.588,116.844 103.434 C 117.116 103.261,117.090 103.207,116.731 103.204 C 116.337 103.201,116.313 103.119,116.579 102.693 C 117.074 101.899,116.299 101.000,114.215 99.952 L 112.400 99.039 110.743 95.720 C 109.006 92.242,108.049 89.619,106.672 84.566 C 105.595 80.613,105.273 80.000,104.276 80.000 C 102.659 80.000,103.296 86.266,106.297 99.867 C 107.976 107.479,107.377 106.857,113.867 107.727 C 124.691 109.180,127.645 110.113,128.874 112.467 C 132.969 120.307,133.600 122.407,135.182 133.467 C 136.919 145.611,136.963 146.211,136.471 151.094 C 136.237 153.426,136.048 155.573,136.051 155.867 C 136.069 157.253,135.894 158.632,135.715 158.522 C 135.606 158.454,135.584 158.658,135.667 158.975 C 135.751 159.295,135.708 159.483,135.571 159.398 C 135.429 159.310,135.317 160.058,135.307 161.156 C 135.293 162.730,135.139 163.387,134.434 164.887 C 133.886 166.050,133.635 166.916,133.739 167.287 C 133.853 167.693,133.827 167.759,133.652 167.506 C 133.474 167.250,133.349 167.500,133.217 168.378 C 133.116 169.056,132.922 169.542,132.786 169.458 C 132.650 169.374,132.606 169.480,132.688 169.694 C 132.770 169.907,132.589 170.568,132.285 171.164 C 131.982 171.759,131.733 172.437,131.733 172.672 C 131.733 172.906,131.613 173.024,131.467 172.933 C 131.320 172.843,131.200 173.001,131.200 173.285 C 131.200 173.569,131.021 173.950,130.803 174.131 C 130.585 174.312,130.458 174.545,130.522 174.649 C 130.587 174.753,130.405 175.222,130.120 175.692 C 129.834 176.162,129.598 176.933,129.596 177.406 C 129.593 178.060,129.530 178.171,129.333 177.867 C 129.132 177.555,129.074 177.629,129.071 178.200 C 129.067 178.878,128.807 179.083,128.133 178.940 C 126.741 178.643,126.835 178.283,127.028 183.190 C 127.227 188.257,128.132 201.079,128.534 204.533 C 128.929 207.917,128.910 208.183,128.321 207.649 C 128.057 207.410,126.887 206.784,125.721 206.256 C 118.387 202.938,115.243 201.117,112.745 198.740 C 111.018 197.098,110.921 197.045,109.945 197.238 C 107.941 197.633,107.648 197.552,107.401 196.533 C 107.165 195.565,106.753 194.071,105.966 191.333 C 105.713 190.453,104.702 188.388,103.721 186.744 C 102.739 185.100,102.014 183.720,102.110 183.677 C 102.699 183.416,106.662 177.537,107.285 176.000 C 107.519 175.423,107.731 173.493,107.840 170.947 C 108.004 167.128,108.064 166.769,108.664 166.014 C 109.019 165.566,110.281 164.000,111.468 162.533 C 112.654 161.067,114.047 159.255,114.562 158.508 L 115.499 157.149 114.949 153.769 C 114.647 151.909,114.400 150.331,114.400 150.261 C 114.400 150.191,114.233 150.133,114.029 150.133 C 113.450 150.133,113.278 150.848,113.131 153.867 L 112.995 156.667 111.098 158.790 C 107.436 162.887,107.591 162.752,106.941 162.404 C 106.621 162.233,106.192 162.156,105.988 162.234 C 105.530 162.410,103.554 160.858,101.572 158.765 C 100.106 157.217,100.069 157.141,99.622 154.660 C 98.915 150.741,98.112 147.467,97.858 147.467 C 97.330 147.467,97.205 148.382,97.395 150.853 C 97.506 152.291,97.648 154.530,97.711 155.830 C 97.820 158.095,97.856 158.213,98.591 158.660 C 99.668 159.315,105.488 165.582,105.367 165.957 C 104.913 167.372,104.017 172.123,104.010 173.156 C 104.000 174.445,102.528 176.536,101.977 176.042 C 101.869 175.946,101.865 176.012,101.967 176.190 C 102.152 176.513,101.277 177.600,100.832 177.600 C 100.703 177.600,100.449 177.960,100.267 178.400 C 100.084 178.840,99.835 179.200,99.713 179.200 C 99.377 179.200,98.594 181.000,98.792 181.320 C 98.887 181.474,98.851 181.600,98.711 181.600 C 98.571 181.600,98.388 181.420,98.304 181.200 C 98.219 180.980,98.024 180.800,97.870 180.800 C 97.716 180.800,97.082 180.479,96.461 180.087 C 95.091 179.221,92.379 177.860,91.774 177.735 C 90.432 177.456,86.111 175.115,85.891 174.547 C 85.831 174.393,85.261 173.751,84.625 173.121 C 83.988 172.491,83.467 171.819,83.467 171.629 C 83.467 171.438,83.227 171.065,82.933 170.800 C 82.619 170.515,82.400 169.979,82.400 169.492 C 82.400 164.998,80.696 162.072,78.067 162.050 C 77.663 162.047,77.396 161.982,77.472 161.906 C 77.669 161.709,75.165 160.790,74.892 160.959 C 74.768 161.036,74.667 160.985,74.667 160.847 C 74.667 160.453,73.681 160.295,73.322 160.631 C 73.078 160.860,73.030 160.837,73.123 160.533 C 73.209 160.253,72.920 160.035,72.156 159.804 C 70.796 159.393,70.382 159.384,70.467 159.767 C 70.577 160.263,69.959 160.321,69.495 159.857 C 68.965 159.327,69.209 158.765,69.768 159.229 C 70.072 159.481,70.225 159.476,70.478 159.203 C 70.655 159.012,70.673 158.926,70.517 159.012 C 70.362 159.098,69.822 158.816,69.317 158.383 C 68.813 157.951,68.251 157.654,68.070 157.723 C 67.888 157.791,67.768 157.759,67.803 157.651 C 67.838 157.544,67.432 156.918,66.900 156.261 C 65.730 154.816,65.189 153.781,64.401 151.482 C 63.767 149.633,57.070 136.000,56.796 136.000 C 55.604 136.000,55.616 136.694,56.860 139.900 C 57.535 141.642,58.591 144.627,59.205 146.533 C 59.820 148.440,60.488 150.300,60.691 150.667 C 60.894 151.033,61.382 151.993,61.777 152.800 C 64.324 158.010,65.821 159.369,72.124 162.198 C 77.448 164.587,77.129 164.248,78.248 168.720 C 78.772 170.811,79.200 172.704,79.200 172.927 C 79.200 173.403,77.997 173.493,77.716 173.038 C 77.589 172.832,77.463 172.853,77.300 173.105 C 77.135 173.361,77.008 173.380,76.867 173.169 C 76.665 172.870,76.162 172.673,74.933 172.413 C 74.567 172.336,73.907 172.195,73.467 172.100 C 73.027 172.006,72.545 171.834,72.397 171.718 C 72.248 171.602,71.408 171.250,70.530 170.936 C 69.652 170.622,68.453 170.168,67.867 169.927 C 66.363 169.311,60.877 165.156,57.829 162.325 C 56.415 161.012,55.190 159.982,55.107 160.035 C 55.024 160.089,54.771 159.893,54.544 159.600 L 54.132 159.067 54.311 159.600 C 54.488 160.126,54.482 160.126,53.912 159.625 C 53.182 158.984,53.164 159.300,53.878 160.209 C 57.535 164.857,64.505 171.145,68.133 173.068 C 69.600 173.846,70.920 174.570,71.067 174.678 C 71.213 174.786,72.773 175.435,74.533 176.120 C 77.671 177.342,79.137 178.073,85.882 181.779 C 89.116 183.556,95.733 188.657,95.733 189.373 C 95.733 189.526,96.332 191.040,97.063 192.737 C 97.795 194.435,98.471 196.406,98.565 197.118 C 98.660 197.830,98.824 198.466,98.931 198.532 C 99.565 198.924,97.637 191.783,96.438 189.301 C 96.182 188.770,95.951 188.060,95.926 187.722 C 95.900 187.385,95.487 186.727,95.006 186.261 C 94.526 185.794,94.131 185.245,94.129 185.040 C 94.126 184.738,94.076 184.743,93.867 185.067 C 93.646 185.409,93.608 185.399,93.604 185.000 C 93.602 184.743,93.420 184.533,93.200 184.533 C 92.980 184.533,92.800 184.353,92.800 184.133 C 92.800 183.913,92.590 183.731,92.333 183.729 C 91.935 183.726,91.925 183.688,92.267 183.467 C 92.603 183.249,92.588 183.208,92.169 183.204 C 91.806 183.201,91.708 183.058,91.808 182.676 C 91.888 182.370,91.763 182.016,91.506 181.823 C 91.145 181.551,91.123 181.556,91.380 181.846 C 91.615 182.112,91.617 182.281,91.387 182.526 C 91.035 182.904,90.276 181.750,90.567 181.279 C 90.658 181.131,90.481 181.147,90.166 181.316 C 89.714 181.558,89.600 181.543,89.600 181.243 C 89.600 181.036,89.268 180.800,88.863 180.719 C 87.954 180.537,86.794 179.584,87.187 179.342 C 87.341 179.246,87.467 179.279,87.467 179.414 C 87.467 179.549,87.758 179.604,88.114 179.536 C 88.567 179.449,88.864 179.576,89.103 179.959 C 89.336 180.332,89.543 180.424,89.754 180.250 C 89.959 180.079,90.175 180.128,90.397 180.397 C 90.581 180.619,90.857 180.800,91.010 180.800 C 91.163 180.800,91.479 180.977,91.711 181.193 C 93.115 182.500,94.124 183.220,93.963 182.800 C 93.809 182.398,93.861 182.378,94.367 182.649 C 94.687 182.820,94.866 183.093,94.766 183.255 C 94.645 183.451,94.777 183.500,95.158 183.400 C 95.474 183.318,95.800 183.359,95.882 183.492 C 95.964 183.625,96.151 183.733,96.298 183.733 C 96.445 183.733,96.491 183.613,96.400 183.467 C 96.218 183.173,96.609 183.098,96.885 183.374 C 96.980 183.469,96.874 183.682,96.649 183.847 C 96.333 184.077,96.300 184.298,96.503 184.806 C 96.760 185.451,96.767 185.452,96.783 184.867 C 96.793 184.512,96.968 184.267,97.210 184.267 C 97.498 184.267,97.597 184.485,97.543 185.000 C 97.483 185.573,97.569 185.716,97.933 185.655 C 98.244 185.603,98.400 185.749,98.400 186.093 C 98.400 186.377,98.600 186.686,98.845 186.780 C 99.183 186.910,99.215 187.025,98.978 187.262 C 98.807 187.433,98.683 187.879,98.703 188.253 C 98.736 188.881,98.748 188.887,98.855 188.333 C 98.980 187.682,99.323 187.552,99.625 188.041 C 99.743 188.232,99.699 188.277,99.508 188.159 C 99.303 188.032,99.201 188.219,99.204 188.718 C 99.209 189.874,99.492 190.667,99.898 190.667 C 100.101 190.667,100.267 190.907,100.267 191.200 C 100.267 191.493,100.267 191.793,100.267 191.867 C 100.267 191.940,100.511 192.244,100.809 192.542 C 101.294 193.027,101.311 193.142,100.967 193.633 C 100.623 194.124,100.639 194.239,101.112 194.712 C 101.403 195.003,101.577 195.408,101.499 195.612 C 101.421 195.816,101.493 196.067,101.661 196.171 C 101.861 196.294,101.788 196.429,101.449 196.564 C 100.959 196.759,100.963 196.778,101.525 196.947 C 101.989 197.086,102.097 197.289,102.027 197.889 C 101.978 198.310,102.042 198.590,102.169 198.511 C 102.296 198.433,102.400 198.621,102.400 198.930 C 102.400 199.239,102.730 199.802,103.133 200.180 C 103.820 200.824,103.828 200.856,103.259 200.680 C 102.473 200.437,101.540 201.452,101.740 202.333 C 101.842 202.782,101.758 202.932,101.405 202.929 C 100.505 202.921,99.481 201.673,99.446 200.541 C 99.434 200.170,99.363 200.020,99.287 200.208 C 99.212 200.396,99.347 201.436,99.588 202.520 C 100.135 204.975,99.524 204.409,111.840 213.867 C 126.066 224.791,125.624 224.495,129.929 225.967 C 137.149 228.435,138.149 229.014,145.306 234.859 C 149.604 238.370,152.897 242.789,155.197 248.133 C 156.081 250.187,156.803 252.008,156.802 252.181 C 156.801 252.354,157.160 253.274,157.600 254.225 C 158.326 255.793,158.633 256.856,158.251 256.473 C 158.168 256.391,157.814 256.611,157.463 256.962 C 157.112 257.313,156.644 257.600,156.423 257.600 C 155.985 257.600,155.898 257.511,154.591 255.733 L 153.708 254.533 151.588 254.347 C 150.421 254.244,148.984 254.135,148.395 254.106 C 147.214 254.046,145.333 254.567,145.333 254.954 C 145.333 255.089,145.201 255.200,145.040 255.200 C 144.754 255.200,143.262 255.801,142.337 256.289 C 142.082 256.423,141.692 256.533,141.470 256.533 C 141.248 256.533,141.067 256.648,141.067 256.788 C 141.067 256.928,140.645 257.122,140.130 257.218 C 139.615 257.315,139.135 257.490,139.062 257.607 C 138.990 257.724,138.452 257.901,137.867 258.000 C 137.282 258.099,136.735 258.289,136.652 258.423 C 136.570 258.557,136.096 258.667,135.600 258.667 C 135.104 258.667,134.619 258.795,134.522 258.952 C 134.425 259.108,134.193 259.178,134.006 259.106 C 133.818 259.034,133.542 259.098,133.393 259.247 C 132.984 259.656,132.125 259.280,130.750 258.090 C 129.656 257.143,128.595 256.532,128.049 256.534 C 127.949 256.534,127.829 257.284,127.782 258.201 C 127.736 259.117,127.593 259.904,127.464 259.951 C 127.335 259.997,127.304 260.226,127.394 260.461 C 127.511 260.766,127.457 260.826,127.207 260.671 C 126.940 260.506,126.889 260.624,126.991 261.160 C 127.195 262.229,127.006 262.025,126.148 260.255 C 125.719 259.368,125.016 258.242,124.585 257.752 C 124.155 257.262,122.040 253.312,119.885 248.974 C 117.729 244.636,115.337 240.212,114.568 239.143 C 113.799 238.074,112.313 235.987,111.266 234.504 C 107.612 229.329,102.001 222.971,101.512 223.452 C 101.215 223.743,102.027 225.285,104.748 229.600 C 109.081 236.471,112.266 242.864,114.297 248.771 C 116.276 254.528,116.297 254.761,114.759 253.795 C 110.832 251.329,105.437 250.381,102.953 251.720 C 101.563 252.469,94.908 251.283,89.154 249.260 L 86.707 248.400 81.685 243.467 C 78.922 240.753,75.551 237.344,74.193 235.891 L 71.724 233.249 71.062 233.871 C 70.192 234.688,70.172 234.619,71.884 236.715 C 77.436 243.517,82.133 250.057,82.133 250.985 C 82.133 251.917,82.582 252.227,83.713 252.076 C 85.154 251.882,91.078 253.478,95.867 255.350 C 97.533 256.001,98.220 256.100,102.267 256.269 C 106.647 256.453,108.190 256.732,109.088 257.504 C 109.319 257.704,109.679 257.868,109.888 257.870 C 110.766 257.877,114.348 260.378,118.774 264.074 C 123.083 267.671,122.556 267.389,125.348 267.596 C 128.145 267.803,133.421 267.358,141.100 266.266 C 143.648 265.904,146.400 265.606,147.215 265.604 C 149.453 265.598,163.350 267.450,163.581 267.784 C 163.612 267.829,164.340 269.007,165.198 270.400 C 166.057 271.793,168.246 275.182,170.062 277.930 C 175.996 286.906,177.711 294.053,175.320 299.844 C 175.163 300.223,175.197 300.300,175.450 300.144 C 175.702 299.988,175.744 300.080,175.611 300.498 C 175.513 300.809,175.384 301.934,175.325 302.998 C 175.266 304.062,175.110 305.443,174.978 306.067 C 174.836 306.739,174.836 307.200,174.979 307.200 C 175.111 307.200,175.095 307.432,174.943 307.716 C 174.791 307.999,174.667 308.421,174.667 308.653 C 174.667 309.670,173.085 311.446,173.050 310.467 C 173.041 310.210,172.814 310.660,172.544 311.467 C 172.275 312.273,172.042 312.783,172.027 312.600 C 172.012 312.417,171.878 312.267,171.728 312.267 C 171.567 312.267,171.529 312.555,171.634 312.973 C 171.759 313.470,171.721 313.624,171.506 313.491 C 171.301 313.364,171.200 313.575,171.200 314.126 C 171.200 314.593,171.035 315.013,170.821 315.096 C 170.612 315.176,170.373 315.418,170.290 315.634 C 170.206 315.856,170.255 315.956,170.403 315.865 C 170.548 315.775,170.667 315.822,170.667 315.969 C 170.667 316.115,170.534 316.317,170.372 316.418 C 170.166 316.545,170.186 316.669,170.438 316.829 C 170.704 316.998,170.646 317.060,170.218 317.063 C 169.897 317.065,169.573 317.276,169.497 317.533 C 168.923 319.454,168.001 325.205,167.861 327.733 C 167.768 329.420,167.531 331.580,167.336 332.533 C 167.140 333.487,166.657 336.005,166.262 338.131 C 165.868 340.256,165.310 342.622,165.023 343.389 C 164.736 344.155,164.484 345.018,164.462 345.306 C 164.440 345.594,164.307 345.758,164.166 345.671 C 164.019 345.580,163.982 345.701,164.078 345.953 C 164.183 346.225,164.123 346.369,163.924 346.330 C 163.746 346.295,163.614 346.461,163.631 346.699 C 163.652 346.984,163.506 347.091,163.201 347.011 C 162.902 346.933,162.691 347.079,162.600 347.428 C 162.500 347.807,162.304 347.925,161.934 347.828 C 161.646 347.753,160.945 347.941,160.376 348.246 C 159.807 348.551,159.178 348.800,158.978 348.800 C 158.779 348.800,158.245 349.064,157.793 349.386 C 157.341 349.708,157.054 349.836,157.156 349.671 C 157.444 349.206,156.828 348.978,156.352 349.373 C 156.119 349.567,155.794 349.736,155.631 349.749 C 155.036 349.795,153.600 350.458,153.600 350.686 C 153.600 350.814,153.210 351.119,152.733 351.363 C 152.257 351.606,151.771 351.969,151.653 352.169 C 151.536 352.370,151.270 352.533,151.063 352.533 C 150.855 352.533,150.557 352.773,150.400 353.067 C 150.243 353.360,149.957 353.600,149.765 353.600 C 149.573 353.600,149.198 353.841,148.932 354.135 C 148.666 354.429,148.397 354.619,148.335 354.557 C 148.273 354.495,148.022 354.618,147.778 354.829 C 146.881 355.606,143.699 357.867,143.503 357.867 C 143.392 357.867,143.068 358.077,142.784 358.333 C 142.499 358.590,141.607 359.338,140.800 359.996 C 139.993 360.654,139.273 361.257,139.200 361.337 C 138.815 361.752,136.798 363.149,135.867 363.646 C 135.280 363.959,134.380 364.459,133.867 364.757 C 132.450 365.581,130.999 366.246,128.854 367.056 C 127.532 367.555,126.765 368.016,126.460 368.495 C 126.214 368.883,125.910 369.273,125.786 369.362 C 125.193 369.785,126.135 371.693,127.093 372.009 C 129.447 372.785,135.664 370.884,141.621 367.565 C 145.115 365.618,147.495 364.533,148.272 364.533 C 148.739 364.533,148.830 364.204,149.478 360.139 C 149.679 358.876,151.432 355.409,152.466 354.228 C 152.869 353.766,153.500 353.021,153.867 352.572 C 154.233 352.123,154.681 351.751,154.862 351.745 C 155.043 351.738,154.642 352.303,153.971 353.000 C 153.300 353.697,152.516 354.687,152.228 355.200 C 151.941 355.713,151.420 356.607,151.070 357.187 C 150.721 357.767,150.488 358.326,150.552 358.431 C 150.617 358.536,150.557 358.661,150.418 358.711 C 150.280 358.760,150.108 359.280,150.036 359.867 C 149.964 360.453,149.769 361.533,149.602 362.267 C 149.436 363.000,149.195 364.560,149.067 365.733 C 148.733 368.802,148.610 369.442,147.819 372.229 C 146.664 376.300,148.445 377.224,150.561 373.651 C 150.588 373.605,151.192 373.877,151.905 374.253 C 152.617 374.630,153.651 375.112,154.202 375.323 C 154.833 375.565,155.301 375.963,155.467 376.400 C 155.791 377.254,156.806 377.696,159.715 378.247 C 162.659 378.806,162.552 378.916,165.500 372.273 C 166.584 369.829,173.074 361.519,173.537 361.981 C 173.636 362.081,173.560 362.260,173.366 362.380 C 173.173 362.499,172.996 362.901,172.974 363.273 C 172.952 363.645,172.863 363.906,172.778 363.853 C 172.693 363.800,172.363 364.352,172.046 365.079 C 171.681 365.915,171.297 366.408,171.001 366.421 C 170.728 366.433,170.671 366.498,170.863 366.575 C 171.220 366.720,168.802 369.295,167.811 369.825 C 167.497 369.993,167.069 370.461,166.860 370.865 C 166.651 371.269,166.294 371.960,166.067 372.400 C 165.839 372.840,165.144 374.253,164.523 375.540 C 163.824 376.988,162.886 378.410,162.061 379.273 C 159.823 381.615,159.451 382.667,160.861 382.667 C 161.585 382.667,164.488 380.824,165.687 379.603 C 166.152 379.129,167.013 378.588,167.600 378.401 C 169.663 377.742,174.089 375.262,174.356 374.616 C 174.530 374.193,179.260 374.472,182.636 375.104 C 183.523 375.270,183.536 375.259,183.414 374.431 C 183.335 373.892,183.430 373.474,183.679 373.268 C 184.101 372.918,183.981 374.406,183.450 376.133 C 182.695 378.585,183.054 382.960,184.054 383.495 C 184.761 383.874,185.148 383.485,186.384 381.158 C 187.511 379.034,189.090 377.599,189.722 378.124 C 189.945 378.309,190.939 378.520,191.931 378.592 C 192.922 378.663,194.248 378.890,194.876 379.094 C 196.930 379.763,200.091 379.324,201.403 378.186 C 201.827 377.818,201.930 377.831,202.469 378.316 C 203.719 379.441,204.800 379.061,204.800 377.495 C 204.800 377.012,205.070 376.538,205.600 376.092 C 206.040 375.722,206.400 375.250,206.400 375.043 C 206.400 374.502,206.864 374.579,207.544 375.232 C 208.280 375.939,210.076 376.786,210.853 376.794 C 211.176 376.797,211.993 377.173,212.669 377.629 C 213.859 378.433,214.517 378.517,213.913 377.790 C 213.618 377.434,213.778 375.461,214.102 375.473 C 214.322 375.480,216.000 378.122,216.000 378.462 C 216.000 378.609,215.768 378.668,215.484 378.594 C 214.838 378.425,214.562 379.048,215.088 379.484 C 215.302 379.662,215.612 380.341,215.776 380.993 C 216.119 382.354,216.692 382.721,217.308 381.974 C 217.542 381.691,218.033 381.444,218.400 381.427 C 218.767 381.409,219.493 381.309,220.014 381.205 C 220.940 381.018,221.028 381.080,224.009 383.974 C 225.686 385.602,227.207 386.933,227.389 386.933 C 228.155 386.933,227.180 384.144,225.766 382.291 C 224.581 380.739,224.578 380.631,225.695 380.098 C 226.427 379.749,226.694 379.374,227.164 378.036 C 228.161 375.196,228.087 374.741,225.150 365.733 C 221.244 353.754,219.302 349.005,217.764 347.672 C 217.169 347.156,213.820 344.872,212.926 344.373 C 212.559 344.168,212.334 343.643,212.181 342.640 C 212.060 341.848,211.618 339.460,211.199 337.333 C 210.428 333.423,209.867 329.182,209.867 327.260 C 209.867 326.625,210.484 324.593,211.432 322.106 C 212.293 319.848,213.267 316.800,213.597 315.333 C 214.304 312.195,214.349 312.095,214.787 312.694 C 215.461 313.615,215.909 312.953,216.094 310.762 L 216.270 308.676 218.068 306.840 C 221.445 303.390,230.498 296.533,231.675 296.533 C 231.811 296.533,232.125 297.523,232.372 298.733 C 233.098 302.286,233.392 303.239,233.813 303.401 C 234.403 303.627,234.884 302.781,235.044 301.237 C 235.848 293.436,235.487 294.220,238.742 293.192 C 240.536 292.626,241.337 292.533,244.468 292.533 C 248.436 292.533,257.600 292.136,263.018 291.729 C 269.896 291.212,272.006 286.844,273.462 270.106 L 273.638 268.078 276.086 266.471 C 286.726 259.488,287.049 259.355,290.100 260.701 C 292.040 261.557,291.994 261.566,295.974 259.603 L 299.482 257.873 299.748 258.603 C 300.477 260.603,300.612 260.837,300.836 260.485 C 300.958 260.291,301.060 259.631,301.063 259.016 C 301.069 257.385,302.272 257.450,303.067 259.124 C 303.774 260.615,304.380 260.658,304.133 259.200 L 303.953 258.133 305.161 258.133 C 305.825 258.133,306.446 258.259,306.541 258.413 C 306.660 258.604,306.832 258.594,307.089 258.382 C 307.344 258.170,308.018 258.130,309.209 258.258 C 310.878 258.437,310.979 258.414,311.504 257.746 C 311.806 257.362,312.792 256.713,313.694 256.304 C 316.653 254.961,317.775 253.489,320.698 247.113 C 322.447 243.300,322.905 241.790,322.176 242.240 C 322.051 242.317,320.916 244.095,319.653 246.190 C 316.208 251.907,314.340 253.929,312.191 254.266 C 310.668 254.505,307.795 255.461,306.727 256.084 C 305.980 256.520,305.742 256.546,305.064 256.266 C 304.174 255.897,304.243 255.467,305.194 255.467 C 305.539 255.467,305.870 255.325,305.927 255.151 C 305.996 254.946,306.616 254.851,307.697 254.881 C 308.825 254.912,309.304 254.835,309.184 254.640 C 309.086 254.483,308.763 254.417,308.466 254.495 C 308.169 254.573,307.312 254.403,306.563 254.118 C 303.769 253.056,300.066 253.722,298.140 255.633 C 297.416 256.351,293.055 258.400,292.250 258.400 C 291.896 258.400,291.601 257.958,291.174 256.788 C 290.851 255.901,290.364 255.057,290.093 254.912 C 289.403 254.542,289.403 254.545,291.340 249.060 C 293.457 243.068,293.944 241.065,293.405 240.562 C 292.841 240.035,292.029 241.521,288.398 249.733 C 286.082 254.969,285.075 256.732,284.200 257.082 C 283.723 257.272,282.613 257.775,281.733 258.199 C 280.853 258.624,279.495 259.040,278.714 259.125 C 277.930 259.210,277.439 259.367,277.616 259.477 C 277.804 259.593,277.482 259.751,276.834 259.861 C 276.100 259.985,275.793 260.151,275.917 260.357 C 276.029 260.545,275.934 260.530,275.675 260.320 C 275.379 260.081,275.193 260.063,275.070 260.261 C 274.973 260.418,274.752 260.525,274.580 260.497 C 274.100 260.420,272.728 260.837,272.141 261.240 C 271.851 261.438,271.463 261.600,271.277 261.600 C 270.869 261.600,269.867 262.423,269.867 262.759 C 269.867 262.891,270.047 262.849,270.267 262.667 C 271.177 261.911,270.585 262.940,269.626 263.781 C 268.153 265.073,267.924 266.003,265.904 278.933 C 265.441 281.896,265.403 281.998,264.779 281.950 C 261.423 281.688,260.089 281.852,260.089 282.525 C 260.089 282.737,260.169 282.860,260.268 282.799 C 260.366 282.739,260.709 282.873,261.030 283.098 L 261.614 283.507 260.908 284.353 C 260.194 285.210,259.547 285.637,257.968 286.297 C 256.482 286.918,255.576 285.241,256.800 284.133 C 257.434 283.560,257.485 283.200,256.933 283.200 C 256.713 283.200,256.533 283.084,256.533 282.942 C 256.533 282.800,256.334 282.760,256.090 282.854 C 255.791 282.968,255.709 282.922,255.839 282.712 C 256.095 282.297,257.253 282.312,257.423 282.733 C 257.531 283.000,257.562 283.000,257.579 282.733 C 257.591 282.548,257.944 282.400,258.375 282.400 C 259.497 282.400,259.199 281.630,257.466 280.046 L 256.063 278.763 255.565 274.782 C 255.037 270.562,254.844 257.166,255.274 254.658 C 255.662 252.402,258.021 249.235,259.467 249.029 C 261.450 248.747,271.801 246.373,272.735 245.986 C 273.769 245.557,273.959 245.116,274.523 241.837 C 275.085 238.570,275.211 238.454,278.695 237.988 C 282.915 237.423,286.351 237.601,289.255 238.534 C 289.739 238.689,289.903 238.579,290.188 237.905 C 290.378 237.456,291.316 236.273,292.273 235.277 C 295.920 231.482,296.369 230.929,296.054 230.614 C 295.832 230.392,295.457 230.570,294.610 231.297 C 293.981 231.838,292.350 233.196,290.985 234.315 L 288.503 236.349 285.918 236.018 C 284.497 235.835,282.992 235.545,282.574 235.373 L 281.815 235.061 282.974 234.425 C 284.427 233.628,285.215 232.922,285.917 231.785 C 286.638 230.619,286.233 230.069,285.131 230.719 C 284.034 231.366,283.077 231.837,280.000 233.249 C 274.398 235.819,271.505 237.695,271.474 238.781 C 271.470 238.916,270.998 239.996,270.425 241.181 L 269.384 243.333 267.559 243.244 C 266.260 243.181,265.580 243.015,265.200 242.670 C 264.907 242.403,264.157 242.034,263.533 241.850 C 262.163 241.446,262.168 241.515,263.366 239.135 C 264.545 236.794,266.624 233.934,269.296 230.979 C 271.410 228.640,271.481 228.384,270.239 227.559 C 269.160 226.843,258.667 235.386,258.667 236.981 C 258.667 237.175,258.561 237.333,258.432 237.333 C 258.303 237.333,258.040 237.723,257.847 238.200 C 257.654 238.677,257.285 239.367,257.028 239.733 C 256.431 240.583,255.412 242.401,254.505 244.234 C 254.115 245.023,253.573 245.727,253.301 245.798 C 253.029 245.869,252.872 246.034,252.952 246.164 C 253.032 246.294,252.971 246.400,252.816 246.400 C 252.660 246.400,252.533 246.528,252.533 246.684 C 252.533 246.840,252.167 247.276,251.719 247.653 C 251.244 248.053,250.965 248.498,251.050 248.720 C 251.160 249.007,251.055 249.057,250.625 248.920 C 250.165 248.774,250.086 248.825,250.223 249.183 C 250.324 249.445,250.285 249.561,250.130 249.465 C 249.985 249.375,249.865 249.459,249.863 249.651 C 249.859 249.928,249.811 249.925,249.629 249.637 C 249.502 249.438,249.461 249.037,249.537 248.747 C 249.758 247.899,248.601 248.250,247.993 249.216 C 247.483 250.025,247.483 250.038,248.047 251.082 C 249.102 253.033,249.366 266.495,248.471 272.752 L 248.154 274.972 247.326 274.816 C 246.423 274.647,244.717 275.116,244.938 275.474 C 245.013 275.595,244.803 275.734,244.471 275.781 C 244.138 275.828,243.851 276.047,243.831 276.267 C 243.811 276.487,243.781 276.830,243.764 277.029 C 243.746 277.242,243.563 277.325,243.319 277.232 C 243.092 277.144,242.967 277.172,243.041 277.292 C 243.193 277.538,242.167 279.773,241.781 280.037 C 241.064 280.527,242.021 280.863,243.704 280.712 C 245.105 280.586,245.357 280.617,244.933 280.860 C 244.256 281.248,244.108 281.409,242.731 283.259 C 240.839 285.799,239.956 285.892,239.445 283.605 C 239.206 282.540,239.203 281.976,239.431 281.322 C 239.597 280.845,239.733 280.056,239.733 279.571 C 239.733 279.007,239.943 278.492,240.314 278.147 C 240.633 277.849,240.830 277.542,240.752 277.463 C 240.489 277.200,237.867 277.049,237.867 277.297 C 237.867 277.432,237.567 277.617,237.200 277.710 C 236.833 277.802,236.533 278.002,236.533 278.154 C 236.533 278.307,236.672 278.346,236.841 278.241 C 237.018 278.132,237.077 278.167,236.981 278.323 C 236.888 278.473,236.518 278.539,236.157 278.470 C 235.398 278.325,230.460 279.149,229.867 279.520 C 229.567 279.707,229.620 279.737,230.079 279.640 C 231.606 279.316,236.800 280.677,236.800 281.401 C 236.800 281.530,237.070 281.569,237.400 281.487 C 237.730 281.405,237.857 281.405,237.682 281.486 C 237.507 281.568,237.426 281.798,237.503 281.997 C 237.582 282.205,237.319 282.566,236.888 282.841 C 236.473 283.105,236.071 283.407,235.994 283.511 C 235.281 284.486,232.533 285.526,232.533 284.821 C 232.533 284.686,232.147 284.491,231.675 284.387 C 231.204 284.284,230.634 284.085,230.409 283.945 C 230.094 283.749,229.561 284.108,228.081 285.512 C 225.542 287.922,225.717 287.796,223.449 288.853 C 220.687 290.142,220.038 290.363,218.667 290.488 C 218.007 290.548,217.276 290.678,217.044 290.777 C 216.369 291.064,215.261 290.036,215.688 289.521 C 215.916 289.247,215.935 289.058,215.746 288.941 C 214.839 288.380,215.672 286.026,216.886 285.721 C 217.281 285.622,217.668 285.439,217.746 285.314 C 217.823 285.189,217.312 285.265,216.610 285.483 C 214.963 285.995,213.463 286.354,212.157 286.550 L 211.115 286.707 211.891 287.218 C 212.318 287.500,212.547 287.731,212.400 287.732 C 212.253 287.734,212.099 288.484,212.056 289.401 C 212.013 290.317,211.803 291.766,211.589 292.622 C 211.375 293.477,211.200 294.460,211.200 294.806 C 211.200 295.936,209.111 298.854,208.841 298.102 C 208.786 297.949,208.597 297.970,208.374 298.155 C 208.089 298.391,208.000 298.390,208.000 298.150 C 208.000 297.977,207.884 297.907,207.741 297.995 C 207.115 298.382,207.214 293.463,207.900 290.153 C 208.020 289.574,207.987 289.545,207.586 289.878 C 207.191 290.206,207.150 290.189,207.238 289.732 C 207.293 289.447,207.582 289.090,207.881 288.940 C 209.252 288.250,210.455 286.993,210.278 286.435 C 210.165 286.079,210.332 285.476,210.749 284.741 C 211.105 284.113,212.059 282.336,212.869 280.792 C 217.607 271.754,221.483 268.340,234.267 261.944 C 242.992 257.579,242.357 258.526,242.670 249.408 C 242.991 240.074,243.900 232.564,245.228 228.267 C 245.749 226.580,246.533 224.024,246.970 222.588 C 247.407 221.151,248.556 218.031,249.524 215.654 C 250.491 213.278,251.552 210.498,251.880 209.477 L 252.477 207.620 255.505 206.039 C 257.171 205.169,259.793 203.956,261.333 203.342 C 267.296 200.966,268.431 199.764,270.283 193.867 C 270.675 192.620,271.642 190.464,272.431 189.075 C 273.221 187.686,273.867 186.463,273.867 186.357 C 273.867 186.251,274.469 185.537,275.205 184.769 C 275.941 184.001,276.910 182.764,277.358 182.020 L 278.172 180.667 278.039 182.196 C 277.826 184.645,278.243 184.211,279.359 180.820 C 280.332 177.865,280.470 177.614,281.467 176.972 C 282.608 176.236,282.859 176.378,282.473 177.539 C 282.150 178.512,282.362 180.856,282.761 180.727 C 282.929 180.673,283.229 179.917,283.427 179.047 C 284.315 175.152,283.952 175.635,286.867 174.476 C 287.061 174.398,287.202 174.550,287.204 174.838 C 287.206 175.110,287.326 175.513,287.471 175.733 C 287.806 176.244,288.256 175.669,288.263 174.720 C 288.267 174.086,288.401 174.007,291.278 172.950 C 293.011 172.313,293.308 171.741,294.027 167.657 C 294.367 165.719,294.944 162.933,295.307 161.467 C 296.791 155.485,297.884 149.542,297.571 149.165 C 297.096 148.593,296.000 148.699,296.000 149.318 C 296.000 149.602,295.900 149.897,295.778 149.972 C 295.657 150.047,295.394 150.804,295.194 151.654 C 294.995 152.505,294.818 153.260,294.801 153.333 C 294.783 153.407,294.302 154.907,293.732 156.667 C 293.161 158.427,292.650 160.211,292.596 160.631 C 292.541 161.051,292.366 161.711,292.206 162.098 C 292.045 162.484,291.941 162.960,291.974 163.155 C 292.007 163.350,291.846 163.796,291.617 164.145 C 291.387 164.495,291.200 165.033,291.200 165.340 C 291.200 165.694,291.087 165.829,290.892 165.708 C 290.708 165.594,290.656 165.634,290.763 165.808 C 290.862 165.967,290.638 166.644,290.265 167.312 C 289.892 167.980,289.591 168.618,289.596 168.730 C 289.623 169.371,288.719 169.911,287.880 169.754 C 287.233 169.632,286.650 169.765,285.672 170.255 C 283.556 171.318,281.879 171.582,280.411 171.084 C 278.288 170.363,276.071 170.742,277.272 171.620 C 277.699 171.932,277.699 171.982,277.263 172.464 C 277.008 172.745,276.800 173.176,276.800 173.421 C 276.800 173.666,276.710 173.843,276.600 173.815 C 276.394 173.761,274.187 174.692,272.599 175.501 C 271.434 176.095,271.349 175.882,271.542 172.847 C 271.691 170.499,272.538 167.240,273.614 164.878 C 275.527 160.675,275.379 160.119,271.210 155.867 C 264.549 149.070,264.442 148.821,265.211 141.851 C 265.914 135.476,265.288 135.845,262.922 143.200 C 261.130 148.767,260.889 147.820,266.359 156.666 L 268.667 160.399 268.644 162.666 C 268.616 165.492,268.167 168.691,267.144 173.333 C 266.635 175.646,266.311 177.982,266.237 179.867 C 266.175 181.480,266.081 183.640,266.030 184.667 C 265.970 185.874,266.018 186.345,266.167 186.000 C 266.327 185.632,266.356 185.797,266.262 186.533 C 266.187 187.120,266.070 188.589,266.002 189.798 C 265.861 192.298,265.653 193.333,265.293 193.333 C 265.156 193.333,265.077 193.483,265.118 193.667 C 265.296 194.455,264.229 196.533,263.645 196.537 C 263.174 196.541,263.141 196.589,263.467 196.800 C 263.790 197.009,263.752 197.059,263.267 197.063 C 262.937 197.065,262.667 197.207,262.667 197.378 C 262.667 197.549,262.589 197.611,262.494 197.516 C 262.399 197.421,261.859 197.603,261.294 197.921 L 260.267 198.498 259.230 197.916 C 258.047 197.251,257.466 197.205,256.564 197.705 C 256.153 197.932,256.035 198.124,256.231 198.244 C 256.696 198.532,256.590 199.600,256.046 200.092 C 255.457 200.625,254.965 200.659,254.781 200.179 C 254.497 199.441,249.867 200.189,249.867 200.973 C 249.867 202.040,248.549 199.930,244.512 192.400 C 241.153 186.134,241.171 186.218,242.543 183.178 C 245.152 177.400,246.401 165.739,245.161 158.733 C 244.704 156.155,243.796 158.146,243.183 163.067 C 243.018 164.387,242.644 166.847,242.352 168.533 C 242.060 170.220,241.780 172.101,241.731 172.713 C 241.681 173.325,241.507 174.075,241.344 174.379 C 241.181 174.684,241.127 174.933,241.223 174.933 C 241.320 174.933,241.274 175.083,241.122 175.267 C 240.970 175.450,240.579 176.380,240.254 177.333 C 239.929 178.287,239.571 179.187,239.459 179.333 C 238.855 180.124,236.533 184.399,236.533 184.721 C 236.533 184.928,236.413 185.024,236.267 184.933 C 236.120 184.843,236.000 185.023,236.000 185.333 C 236.000 185.644,235.888 185.829,235.750 185.744 C 235.248 185.433,235.974 187.162,238.604 192.533 C 242.696 200.891,244.596 205.593,244.350 206.752 C 244.230 207.321,244.236 207.322,244.647 206.816 C 245.047 206.322,245.067 206.342,245.067 207.250 C 245.067 207.773,244.891 208.348,244.675 208.526 C 244.460 208.705,244.300 208.930,244.319 209.026 C 244.383 209.345,243.930 210.795,243.658 211.140 C 243.511 211.327,242.891 212.467,242.281 213.674 C 241.671 214.880,241.039 216.107,240.875 216.400 C 239.970 218.022,239.200 219.787,239.200 220.240 C 239.200 220.523,239.110 220.796,239.000 220.844 C 238.817 220.926,237.841 222.841,237.323 224.133 C 237.206 224.427,236.800 225.349,236.422 226.183 C 236.043 227.018,235.733 227.809,235.733 227.943 C 235.733 228.076,235.525 228.593,235.271 229.092 C 234.447 230.712,234.141 231.839,234.137 233.282 C 234.135 234.157,234.031 234.635,233.867 234.533 C 233.710 234.436,233.598 234.731,233.596 235.251 C 233.593 235.919,233.529 236.036,233.333 235.733 C 233.145 235.442,233.074 235.653,233.071 236.512 C 233.069 237.161,232.903 237.881,232.704 238.112 C 232.231 238.662,231.849 240.790,231.313 245.867 C 231.074 248.140,230.845 250.240,230.806 250.533 C 230.767 250.827,230.719 251.388,230.701 251.781 C 230.682 252.174,230.506 252.656,230.310 252.852 C 230.113 253.049,229.883 253.387,229.797 253.605 C 229.677 253.910,229.637 253.917,229.621 253.634 C 229.604 253.339,229.522 253.332,229.200 253.600 C 228.886 253.861,228.800 253.862,228.800 253.604 C 228.800 253.424,228.634 253.340,228.430 253.418 C 228.164 253.520,228.101 253.404,228.206 253.005 C 228.313 252.592,228.260 252.506,227.998 252.668 C 227.524 252.961,226.133 253.057,226.133 252.797 C 226.133 252.460,227.985 250.933,228.394 250.933 C 229.640 250.933,228.388 248.936,226.425 247.794 C 225.751 247.402,224.787 246.804,224.283 246.465 C 223.778 246.126,223.212 245.907,223.025 245.979 C 222.837 246.051,222.608 245.987,222.515 245.837 C 222.422 245.687,222.186 245.625,221.990 245.700 C 221.795 245.775,221.592 245.708,221.539 245.552 C 221.367 245.035,219.885 245.576,219.558 246.274 C 219.388 246.638,219.361 246.933,219.498 246.933 C 219.635 246.933,219.863 247.241,220.006 247.616 C 220.149 247.992,220.373 248.232,220.505 248.151 C 220.636 248.070,220.809 248.173,220.889 248.381 C 220.969 248.589,221.311 248.801,221.650 248.852 C 221.989 248.904,222.237 249.093,222.200 249.273 C 222.163 249.453,222.258 249.600,222.411 249.600 C 224.119 249.600,224.473 251.321,223.160 253.248 C 222.742 253.861,222.400 254.551,222.400 254.781 C 222.400 255.012,222.266 255.200,222.102 255.200 C 221.936 255.200,221.866 255.435,221.944 255.734 C 222.021 256.027,221.987 256.208,221.870 256.135 C 221.752 256.063,221.588 256.179,221.506 256.394 C 221.378 256.728,221.197 256.713,220.253 256.290 C 219.096 255.772,218.081 255.820,218.297 256.384 C 218.452 256.786,218.033 257.128,216.800 257.606 C 216.287 257.805,215.418 258.245,214.870 258.585 C 214.322 258.924,213.782 259.176,213.670 259.144 C 213.558 259.112,212.927 259.439,212.267 259.871 C 211.607 260.302,210.873 260.778,210.637 260.928 C 210.401 261.078,209.741 261.514,209.171 261.898 C 208.600 262.281,207.503 262.992,206.733 263.476 C 205.963 263.960,205.333 264.516,205.333 264.712 C 205.333 264.907,205.145 265.067,204.915 265.067 C 204.610 265.067,204.543 265.228,204.666 265.667 C 204.771 266.038,204.747 266.141,204.604 265.937 C 204.315 265.525,203.200 266.222,203.200 266.815 C 203.200 267.027,203.020 267.200,202.800 267.200 C 202.580 267.200,202.400 267.327,202.400 267.482 C 202.400 267.638,202.550 267.675,202.733 267.565 C 202.942 267.439,202.923 267.541,202.684 267.836 C 202.351 268.246,202.351 268.339,202.684 268.550 C 202.965 268.728,202.864 268.793,202.301 268.796 C 201.615 268.800,201.573 268.847,201.901 269.250 C 202.223 269.646,202.208 269.678,201.778 269.517 C 201.510 269.416,201.112 269.333,200.896 269.333 C 200.656 269.333,200.577 269.203,200.694 269.000 C 200.800 268.817,200.589 268.937,200.226 269.267 C 199.863 269.597,199.393 269.870,199.183 269.875 C 198.871 269.882,198.879 269.944,199.223 270.208 C 199.456 270.387,199.599 270.675,199.541 270.847 C 199.303 271.554,195.935 268.894,195.162 267.388 C 194.006 265.133,191.959 263.482,189.843 263.099 L 188.886 262.925 188.721 255.263 L 188.557 247.600 186.346 243.200 L 184.135 238.800 184.038 235.791 C 183.942 232.776,184.409 229.516,185.151 228.035 C 186.268 225.805,200.560 220.535,205.494 220.534 C 208.740 220.533,210.066 219.308,209.189 217.118 C 208.555 215.532,210.477 209.388,212.167 207.600 C 214.853 204.759,216.701 201.321,217.040 198.533 C 217.363 195.875,217.407 189.793,217.115 188.133 C 216.836 186.550,215.580 186.398,215.329 187.917 C 214.803 191.100,213.694 195.556,213.085 196.933 C 212.956 197.227,212.703 198.037,212.523 198.733 C 212.344 199.430,212.086 200.000,211.950 200.000 C 211.813 200.000,211.764 200.101,211.840 200.224 C 211.916 200.347,211.501 200.945,210.918 201.552 C 210.334 202.160,209.865 202.724,209.875 202.807 C 209.905 203.043,208.592 204.533,208.351 204.537 C 208.231 204.538,207.862 204.958,207.531 205.470 C 207.200 205.981,206.810 206.400,206.664 206.400 C 206.519 206.400,206.400 206.580,206.400 206.800 C 206.400 207.020,206.290 207.200,206.156 207.200 C 205.862 207.200,203.733 211.084,203.733 211.620 C 203.733 211.829,203.613 212.000,203.467 212.000 C 203.320 212.000,203.200 212.165,203.200 212.367 C 203.200 212.840,202.034 215.441,201.511 216.133 C 201.259 216.467,200.776 216.675,200.221 216.690 C 198.491 216.736,198.133 216.803,198.133 217.082 C 198.133 217.238,198.253 217.291,198.400 217.200 C 198.547 217.109,198.667 217.162,198.667 217.318 C 198.667 217.675,198.218 217.686,198.000 217.333 C 197.909 217.187,197.572 217.069,197.251 217.071 C 196.793 217.074,196.750 217.128,197.053 217.319 C 197.304 217.478,197.048 217.511,196.319 217.413 C 195.576 217.313,195.200 217.364,195.200 217.565 C 195.200 217.731,194.850 217.867,194.422 217.867 C 193.994 217.867,193.584 218.017,193.510 218.200 C 193.405 218.460,193.371 218.458,193.354 218.191 C 193.338 217.925,193.207 217.916,192.770 218.149 C 192.460 218.315,191.914 218.395,191.555 218.326 C 191.182 218.255,190.733 218.372,190.505 218.600 C 190.152 218.953,190.126 218.921,190.278 218.318 C 190.454 217.613,189.344 216.644,187.800 216.154 C 186.972 215.892,186.899 216.207,189.834 207.445 C 191.282 203.120,192.556 198.866,192.664 197.991 L 192.861 196.400 195.297 194.519 C 202.150 189.228,208.510 186.578,215.733 186.003 C 218.856 185.754,221.572 185.376,222.576 185.049 C 223.639 184.703,223.679 184.603,226.405 175.465 C 228.667 167.887,230.809 161.453,232.354 157.600 L 233.263 155.333 236.467 152.933 C 240.298 150.063,242.719 148.309,248.431 144.264 L 252.729 141.220 253.013 139.610 C 255.158 127.475,255.303 127.114,258.777 125.220 C 259.977 124.566,262.147 123.606,263.598 123.088 C 266.988 121.876,265.746 123.558,273.373 109.845 L 274.942 107.023 274.401 102.778 C 273.534 95.974,273.357 95.200,272.663 95.200 C 272.092 95.200,271.936 96.633,271.899 102.221 L 271.864 107.333 270.296 110.400 C 269.433 112.087,268.593 113.736,268.430 114.065 C 268.267 114.393,268.036 114.663,267.918 114.665 C 267.799 114.666,267.768 114.773,267.848 114.903 C 267.928 115.033,267.815 115.288,267.597 115.469 C 267.379 115.650,267.200 116.005,267.200 116.258 C 267.200 116.511,266.968 116.927,266.685 117.184 C 266.401 117.440,266.234 117.819,266.313 118.025 C 266.401 118.255,266.285 118.400,266.013 118.400 C 265.768 118.400,265.637 118.510,265.720 118.645 C 265.983 119.071,264.589 119.931,263.331 120.120 C 262.667 120.219,262.177 120.387,262.242 120.493 C 262.307 120.599,262.152 120.686,261.896 120.686 C 261.483 120.686,261.470 120.608,261.782 119.982 C 262.472 118.600,260.866 116.489,259.463 116.934 C 258.835 117.134,258.842 117.279,259.337 114.267 C 259.935 110.629,259.960 110.730,257.883 108.492 C 253.998 104.305,253.109 102.998,252.149 100.067 C 251.809 99.030,251.559 98.667,251.184 98.667 C 249.400 98.667,250.929 103.351,254.887 110.009 L 256.002 111.884 255.729 113.875 C 255.579 114.971,255.214 117.187,254.917 118.800 C 254.620 120.413,254.342 122.127,254.300 122.608 C 254.258 123.090,254.083 123.624,253.912 123.795 C 253.740 123.966,253.600 124.313,253.600 124.565 C 253.600 125.089,251.759 127.247,251.466 127.066 C 251.360 127.001,251.197 127.574,251.103 128.340 C 250.196 135.760,250.027 136.290,248.400 136.809 C 247.813 136.996,246.193 137.684,244.800 138.337 C 239.601 140.775,238.063 141.332,232.456 142.808 C 230.893 143.220,229.866 143.733,230.606 143.733 C 230.737 143.733,230.844 143.913,230.844 144.133 C 230.844 144.353,230.724 144.533,230.578 144.533 C 230.431 144.533,230.390 144.612,230.487 144.709 C 230.583 144.805,230.552 145.017,230.417 145.180 C 230.106 145.554,228.533 150.438,228.533 151.028 C 228.533 151.269,228.406 151.467,228.251 151.467 C 228.096 151.467,228.056 151.617,228.163 151.800 C 228.271 151.983,228.098 151.905,227.779 151.625 C 227.461 151.346,227.190 150.806,227.178 150.425 C 227.158 149.775,227.132 149.789,226.745 150.667 C 226.419 151.408,226.392 151.819,226.617 152.667 C 226.882 153.666,226.774 154.070,224.917 159.040 C 223.826 161.959,222.933 164.499,222.933 164.684 C 222.933 164.870,222.833 165.062,222.711 165.111 C 222.373 165.246,220.267 169.783,220.267 170.377 C 220.267 170.663,220.027 170.974,219.733 171.067 C 219.420 171.166,219.200 171.470,219.200 171.803 C 219.200 172.575,217.911 173.867,217.142 173.867 C 216.239 173.867,214.666 174.580,214.671 174.986 C 214.674 175.236,214.748 175.221,214.933 174.933 C 215.159 174.583,215.192 174.587,215.196 174.959 C 215.200 175.430,214.379 176.273,213.823 176.368 C 213.627 176.402,213.083 176.633,212.613 176.881 C 212.144 177.130,211.417 177.333,210.998 177.333 C 210.058 177.333,208.979 178.023,209.600 178.226 C 210.683 178.582,210.710 178.648,209.720 178.516 C 208.888 178.404,208.029 178.597,205.987 179.350 C 204.527 179.889,202.433 180.661,201.333 181.065 C 200.233 181.470,198.869 181.995,198.301 182.234 C 196.851 182.842,195.927 182.776,194.324 181.950 C 193.160 181.350,192.543 181.223,190.536 181.173 L 188.138 181.113 187.821 179.557 C 187.498 177.967,186.804 166.893,186.826 163.700 C 186.842 161.517,187.081 161.130,190.273 158.129 C 197.969 150.894,201.667 147.322,202.120 146.686 L 202.632 145.967 201.738 144.650 C 201.247 143.926,199.622 141.353,198.128 138.933 C 195.040 133.933,193.285 131.480,193.129 131.947 C 193.070 132.123,192.792 132.267,192.511 132.267 C 191.204 132.267,192.936 137.343,196.907 145.150 C 197.438 146.193,197.489 146.459,197.180 146.578 C 196.971 146.658,196.800 146.864,196.800 147.036 C 196.800 147.319,195.887 148.267,195.613 148.267 C 195.551 148.267,195.105 148.627,194.624 149.067 C 194.142 149.507,193.587 149.867,193.391 149.867 C 193.196 149.867,193.109 149.987,193.200 150.133 C 193.291 150.280,193.178 150.400,192.949 150.400 C 192.720 150.400,192.533 150.540,192.533 150.711 C 192.533 150.882,192.456 150.944,192.360 150.849 C 192.265 150.754,191.995 150.885,191.760 151.140 C 191.526 151.395,191.007 151.771,190.609 151.975 C 190.211 152.180,189.948 152.449,190.025 152.574 C 190.102 152.698,189.984 152.800,189.762 152.800 C 189.541 152.800,189.264 152.950,189.147 153.133 C 188.952 153.438,188.608 153.665,187.067 154.508 C 186.773 154.669,186.473 154.860,186.400 154.933 C 186.327 155.007,185.837 155.285,185.311 155.551 C 184.786 155.818,184.066 156.301,183.711 156.626 C 183.357 156.950,182.680 157.487,182.208 157.820 C 180.951 158.705,179.733 159.985,179.733 160.421 C 179.733 160.629,179.540 160.800,179.305 160.800 C 179.020 160.800,178.932 160.944,179.041 161.230 C 179.156 161.529,179.091 161.615,178.825 161.513 C 177.842 161.136,178.142 162.909,179.575 165.945 C 180.919 168.792,181.154 171.025,181.017 179.650 C 180.956 183.490,180.996 186.577,181.106 186.509 C 181.434 186.306,181.669 188.154,181.552 190.001 C 181.485 191.053,181.551 191.770,181.721 191.841 C 181.880 191.908,181.857 191.967,181.667 191.979 C 181.461 191.992,181.333 192.397,181.333 193.041 C 181.333 193.613,181.094 195.263,180.803 196.708 C 180.193 199.723,180.167 200.016,180.563 199.467 C 180.802 199.134,180.824 199.149,180.692 199.555 C 180.605 199.824,180.533 200.143,180.533 200.264 C 180.533 200.384,180.263 200.420,179.933 200.342 C 179.386 200.212,179.373 200.232,179.792 200.567 C 180.171 200.870,180.208 201.117,180.004 202.005 C 179.869 202.594,179.728 203.533,179.690 204.090 C 179.653 204.648,179.527 205.163,179.411 205.234 C 179.295 205.306,179.200 205.658,179.200 206.016 C 179.200 206.374,179.080 206.667,178.933 206.667 C 178.787 206.667,178.667 207.147,178.667 207.733 C 178.667 208.320,178.547 208.800,178.400 208.800 C 178.253 208.800,178.133 209.220,178.133 209.733 C 178.133 210.247,178.013 210.667,177.867 210.667 C 177.720 210.667,177.600 211.087,177.600 211.600 C 177.600 212.113,177.502 212.533,177.382 212.533 C 177.262 212.533,176.879 213.403,176.531 214.467 C 176.183 215.530,175.741 216.700,175.550 217.067 C 175.360 217.433,175.203 217.943,175.202 218.200 C 175.201 218.457,175.090 218.667,174.955 218.667 C 174.820 218.667,174.630 219.027,174.533 219.467 C 174.437 219.907,174.247 220.267,174.112 220.267 C 173.977 220.267,173.867 220.567,173.867 220.933 C 173.867 221.300,173.747 221.600,173.600 221.600 C 173.453 221.600,173.333 221.840,173.333 222.133 C 173.333 222.427,173.213 222.667,173.067 222.667 C 172.920 222.667,172.796 222.937,172.792 223.267 C 172.779 224.168,172.151 224.823,171.156 224.974 C 170.667 225.048,170.087 225.293,169.867 225.519 C 169.509 225.886,169.524 225.900,170.010 225.652 C 170.473 225.416,170.561 225.462,170.602 225.961 C 170.633 226.337,170.441 226.640,170.065 226.807 C 169.743 226.950,169.297 227.422,169.073 227.857 C 168.850 228.292,168.517 228.810,168.333 229.010 C 168.150 229.209,168.000 229.603,168.000 229.886 C 168.000 230.169,167.880 230.400,167.733 230.400 C 167.587 230.400,167.467 230.526,167.467 230.680 C 167.467 230.833,167.227 231.456,166.933 232.063 C 166.368 233.233,166.221 234.667,166.667 234.667 C 166.813 234.667,166.933 234.833,166.933 235.036 C 166.933 235.564,166.244 236.822,166.058 236.635 C 165.971 236.549,165.580 237.510,165.187 238.770 C 164.401 241.288,164.138 241.440,163.875 239.527 C 163.667 238.012,163.939 237.191,165.086 235.886 L 165.940 234.913 165.303 234.230 C 164.953 233.854,163.986 233.202,163.155 232.780 C 162.082 232.236,161.211 231.490,160.153 230.207 C 159.333 229.213,156.701 226.517,154.303 224.216 L 149.945 220.033 149.804 216.577 C 149.618 211.988,148.436 209.814,145.533 208.725 C 145.244 208.616,145.066 208.269,145.064 207.808 C 145.062 206.974,144.136 201.051,143.080 195.112 C 141.703 187.369,142.289 176.301,145.032 158.267 C 145.322 156.360,145.710 153.151,145.894 151.136 L 146.228 147.471 147.848 146.637 C 150.540 145.251,153.568 143.360,156.800 141.050 C 159.907 138.829,167.741 134.779,172.800 132.778 C 178.371 130.575,178.260 130.837,178.022 120.365 L 177.833 112.055 179.407 110.361 C 181.114 108.523,183.070 105.428,183.493 103.895 C 183.668 103.262,183.917 102.933,184.221 102.933 C 184.476 102.933,185.760 102.149,187.075 101.191 C 188.391 100.233,190.465 98.720,191.686 97.830 C 194.471 95.797,194.376 96.298,192.924 91.308 C 191.852 87.622,190.695 81.205,190.672 78.813 C 190.668 78.430,190.588 78.372,190.368 78.592 C 189.245 79.715,189.864 88.735,191.337 92.724 L 192.005 94.533 190.424 96.040 C 188.833 97.556,185.118 100.140,184.877 99.899 C 184.805 99.828,185.057 98.171,185.436 96.218 C 186.683 89.782,186.717 89.333,185.950 89.333 C 185.506 89.333,185.383 89.633,183.983 94.133 C 183.367 96.113,182.519 98.486,182.098 99.407 C 181.678 100.327,181.333 101.209,181.333 101.367 C 181.333 102.119,179.163 105.474,178.867 105.178 C 178.806 105.117,178.590 105.397,178.386 105.800 C 177.967 106.631,176.338 108.267,175.930 108.267 C 175.782 108.267,175.377 108.573,175.031 108.947 C 174.684 109.321,174.392 109.531,174.383 109.414 C 174.364 109.171,173.939 110.152,173.921 110.481 C 173.915 110.598,173.717 110.989,173.481 111.349 C 173.152 111.850,172.992 113.201,172.794 117.135 C 172.652 119.957,172.479 122.592,172.410 122.990 C 172.341 123.387,172.396 123.782,172.534 123.867 C 172.671 123.952,172.767 124.442,172.748 124.956 C 172.726 125.527,172.631 125.759,172.504 125.553 C 172.347 125.298,172.252 125.328,172.119 125.674 C 172.022 125.927,171.712 126.133,171.430 126.133 C 171.148 126.133,170.850 126.306,170.770 126.516 C 170.689 126.727,170.452 126.834,170.245 126.755 C 170.037 126.675,169.867 126.750,169.867 126.921 C 169.867 127.092,169.747 127.157,169.600 127.067 C 169.453 126.976,169.333 127.000,169.333 127.120 C 169.333 127.240,169.081 127.496,168.772 127.689 C 168.307 127.979,168.246 127.979,168.413 127.686 C 168.525 127.492,168.267 127.650,167.841 128.037 C 167.415 128.424,166.797 128.822,166.467 128.921 C 166.137 129.021,165.867 129.215,165.867 129.351 C 165.867 129.488,165.739 129.600,165.582 129.600 C 165.426 129.600,164.887 129.913,164.385 130.296 C 163.883 130.679,163.301 130.927,163.091 130.846 C 162.882 130.766,162.645 130.873,162.564 131.084 C 162.483 131.294,162.171 131.467,161.871 131.467 C 161.571 131.467,161.118 131.578,160.863 131.714 C 159.997 132.177,157.886 133.105,157.676 133.115 C 157.561 133.121,157.137 133.360,156.735 133.646 C 156.333 133.933,155.891 134.098,155.754 134.013 C 155.616 133.928,155.427 133.982,155.333 134.133 C 155.240 134.285,155.052 134.340,154.915 134.256 C 154.779 134.171,154.338 134.283,153.934 134.503 C 151.660 135.746,151.220 135.845,150.589 135.258 C 150.046 134.754,147.719 134.115,146.133 134.034 C 145.567 134.005,145.479 134.103,145.547 134.690 C 145.591 135.073,145.443 135.531,145.213 135.722 C 144.986 135.911,144.800 136.238,144.800 136.448 C 144.800 136.659,144.680 136.757,144.533 136.667 C 144.387 136.576,144.267 136.742,144.267 137.035 C 144.267 137.329,144.142 137.645,143.990 137.739 C 143.817 137.846,143.733 137.578,143.765 137.022 C 143.826 135.957,142.514 123.940,142.011 120.963 L 141.657 118.860 142.371 118.162 C 142.764 117.778,144.176 116.024,145.509 114.265 C 146.843 112.506,149.628 109.350,151.700 107.251 C 156.078 102.816,155.944 103.213,154.430 99.169 C 153.141 95.728,151.461 90.546,150.541 87.171 L 149.843 84.609 152.919 79.479 C 158.360 70.406,164.903 63.117,168.617 61.991 C 169.612 61.690,176.155 60.552,176.993 60.535 C 177.348 60.527,179.085 55.570,179.846 52.393 C 180.093 51.362,180.379 50.390,180.481 50.232 C 181.115 49.254,188.577 46.718,192.133 46.272 C 194.625 45.959,194.601 45.973,194.741 44.735 C 194.812 44.111,195.309 42.460,195.845 41.067 C 196.381 39.673,197.011 38.008,197.245 37.365 C 197.479 36.723,198.195 35.432,198.835 34.496 C 200.108 32.637,200.189 32.396,199.615 32.176 C 198.853 31.884,196.178 35.398,194.559 38.820 C 193.832 40.355,193.052 41.624,191.557 43.703 C 191.517 43.759,191.270 43.826,191.008 43.851 C 190.747 43.876,189.873 44.097,189.067 44.341 C 188.260 44.585,186.319 45.011,184.754 45.288 L 181.908 45.792 182.164 45.096 C 182.304 44.713,183.375 42.511,184.543 40.203 C 186.984 35.380,187.007 35.254,185.667 34.240 C 180.146 30.063,179.511 26.536,182.788 18.247 C 184.518 13.872,184.879 12.437,183.983 13.504 M122.129 42.725 C 122.131 42.830,121.961 42.850,121.750 42.770 C 121.539 42.689,121.436 42.442,121.521 42.222 C 121.672 41.828,122.118 42.196,122.129 42.725 M137.200 49.867 C 137.104 50.023,137.380 50.133,137.867 50.133 C 138.353 50.133,138.630 50.244,138.533 50.400 C 138.443 50.547,137.949 50.667,137.435 50.667 C 136.888 50.667,136.569 50.558,136.665 50.403 C 136.758 50.252,136.651 50.207,136.414 50.298 C 136.186 50.386,136.000 50.333,136.000 50.180 C 136.000 50.028,136.270 49.852,136.600 49.788 C 136.930 49.725,137.237 49.656,137.282 49.636 C 137.328 49.616,137.291 49.720,137.200 49.867 M166.526 57.372 C 166.356 58.256,165.840 59.733,165.701 59.733 C 165.101 59.733,164.886 59.013,165.263 58.267 C 166.020 56.767,166.741 56.257,166.526 57.372 M146.762 69.129 C 146.650 69.309,146.535 69.699,146.507 69.995 C 146.320 71.951,146.329 72.736,146.543 73.078 C 146.952 73.731,146.700 74.589,145.451 76.800 L 145.075 77.467 145.040 76.533 C 144.987 75.108,145.077 74.586,145.483 73.951 C 145.778 73.491,145.799 73.063,145.583 71.894 C 145.282 70.271,145.745 68.800,146.556 68.800 C 146.812 68.800,146.889 68.923,146.762 69.129 M109.902 101.958 C 109.738 102.155,109.684 102.395,109.780 102.491 C 109.877 102.588,109.816 102.667,109.644 102.667 C 109.473 102.667,109.333 102.427,109.333 102.133 C 109.333 101.819,109.511 101.600,109.766 101.600 C 110.098 101.600,110.129 101.683,109.902 101.958 M132.000 109.416 C 132.000 109.754,131.824 110.264,131.608 110.549 C 131.175 111.122,130.998 110.169,131.362 109.222 C 131.603 108.592,132.000 108.713,132.000 109.416 M133.690 111.446 C 133.448 111.727,133.212 112.313,133.165 112.746 C 133.117 113.180,132.936 113.879,132.763 114.301 C 132.589 114.722,132.465 115.152,132.487 115.257 C 132.509 115.362,132.329 115.371,132.086 115.278 C 131.767 115.156,131.706 115.207,131.864 115.463 C 132.016 115.709,131.980 115.752,131.744 115.606 C 131.044 115.174,131.583 113.110,132.691 111.975 C 133.725 110.916,134.490 110.510,133.690 111.446 M134.488 118.075 C 133.801 119.407,133.135 119.741,133.486 118.578 C 133.656 118.012,134.947 116.458,135.111 116.622 C 135.156 116.667,134.876 117.321,134.488 118.075 M258.804 118.914 C 258.705 119.365,258.509 119.733,258.367 119.733 C 258.226 119.733,258.139 119.883,258.174 120.067 C 258.344 120.953,255.772 123.861,255.266 123.355 C 255.174 123.263,255.352 123.010,255.661 122.794 C 255.971 122.577,256.414 121.826,256.647 121.125 C 257.370 118.950,259.211 117.063,258.804 118.914 M109.980 127.800 C 110.047 128.130,110.178 128.880,110.270 129.467 C 110.938 133.737,113.859 140.059,115.943 141.748 C 117.339 142.880,120.120 145.284,122.041 147.020 C 123.371 148.222,124.497 151.218,125.217 155.467 C 125.899 159.495,126.849 160.819,131.119 163.689 C 133.069 165.000,133.267 165.032,133.501 164.067 C 133.599 163.663,133.842 163.097,134.040 162.807 C 134.238 162.518,134.400 161.987,134.400 161.626 C 134.400 161.266,134.543 160.577,134.717 160.095 C 134.982 159.363,134.964 159.141,134.610 158.743 C 134.377 158.481,134.031 157.744,133.843 157.106 C 133.480 155.880,131.413 153.333,130.780 153.333 C 130.577 153.333,130.349 153.063,130.274 152.733 C 130.199 152.403,130.017 151.570,129.871 150.881 C 129.177 147.621,126.886 144.271,125.248 144.122 C 124.928 144.093,124.695 143.937,124.731 143.776 C 124.766 143.614,124.526 143.352,124.197 143.193 C 123.623 142.915,123.620 142.920,124.118 143.319 C 124.402 143.547,124.519 143.733,124.376 143.733 C 124.234 143.733,123.715 143.307,123.223 142.785 C 122.729 142.261,122.166 141.900,121.964 141.977 C 121.764 142.054,121.598 141.970,121.596 141.792 C 121.593 141.613,120.723 140.898,119.662 140.203 C 117.132 138.546,116.956 138.399,116.367 137.454 C 116.092 137.012,115.301 135.865,114.610 134.905 C 113.919 133.945,112.927 132.165,112.407 130.949 C 110.959 127.566,109.559 125.750,109.980 127.800 M144.248 139.089 C 144.258 138.808,144.341 138.652,144.431 138.742 C 144.717 139.028,144.040 140.551,143.205 141.502 C 142.211 142.634,142.187 142.275,143.118 140.200 C 143.694 138.917,143.875 138.699,144.033 139.100 C 144.223 139.584,144.230 139.583,144.248 139.089 M117.200 141.067 C 117.107 141.217,117.323 141.333,117.696 141.333 C 118.727 141.333,119.197 141.608,119.231 142.229 C 119.255 142.679,119.288 142.701,119.384 142.333 C 119.519 141.817,119.879 141.721,120.133 142.133 C 120.224 142.280,120.527 142.400,120.807 142.400 C 121.150 142.400,121.267 142.531,121.163 142.800 C 121.057 143.076,121.181 143.200,121.563 143.200 C 121.968 143.200,122.071 143.318,121.948 143.640 C 121.806 144.009,121.901 144.049,122.536 143.890 C 123.166 143.732,123.241 143.762,122.983 144.073 C 122.737 144.370,122.809 144.519,123.337 144.802 C 123.701 144.997,124.000 145.264,124.000 145.394 C 124.000 145.525,124.121 145.557,124.269 145.466 C 124.557 145.287,124.717 145.597,124.901 146.695 C 124.965 147.078,125.257 147.887,125.550 148.493 C 125.843 149.099,126.167 150.226,126.269 150.998 C 126.465 152.469,127.218 153.600,128.002 153.600 C 128.670 153.600,128.743 153.786,128.531 154.946 C 128.317 156.119,128.548 156.433,129.533 156.306 C 130.198 156.220,130.294 156.609,129.878 157.703 C 129.738 158.072,129.595 158.847,129.561 159.425 C 129.502 160.433,129.473 160.464,128.855 160.182 C 128.256 159.909,128.219 159.776,128.327 158.279 C 128.391 157.394,128.394 156.819,128.333 157.001 C 128.272 157.184,127.930 157.333,127.573 157.333 C 126.999 157.333,126.944 157.419,127.098 158.067 L 127.273 158.800 126.603 158.038 C 126.114 157.481,125.810 156.622,125.471 154.838 C 125.217 153.497,124.794 151.740,124.532 150.933 C 124.270 150.127,123.975 149.082,123.876 148.612 C 123.705 147.800,120.658 144.523,118.566 142.902 C 116.834 141.561,116.249 140.800,116.949 140.800 C 117.178 140.800,117.291 140.920,117.200 141.067 M124.756 144.500 C 125.040 144.681,125.024 144.759,124.675 144.893 C 124.385 145.004,124.303 144.957,124.430 144.752 C 124.559 144.543,124.472 144.500,124.163 144.618 C 123.891 144.723,123.772 144.687,123.869 144.530 C 124.066 144.211,124.287 144.203,124.756 144.500 M66.506 157.709 C 66.419 157.936,66.583 158.155,66.918 158.262 C 67.224 158.359,67.406 158.550,67.321 158.686 C 67.179 158.916,67.565 159.051,68.095 158.956 C 68.394 158.902,69.067 159.466,69.067 159.771 C 69.067 159.903,68.587 159.766,68.000 159.467 C 67.413 159.167,66.933 158.792,66.933 158.633 C 66.933 158.473,66.757 158.411,66.542 158.493 C 66.007 158.699,65.748 158.198,66.143 157.722 C 66.551 157.231,66.691 157.226,66.506 157.709 M76.733 163.265 C 77.140 163.591,77.169 164.000,76.784 164.000 C 76.629 164.000,76.569 163.892,76.651 163.759 C 76.732 163.627,76.440 163.393,76.000 163.240 C 75.560 163.087,75.200 162.887,75.200 162.796 C 75.200 162.582,76.301 162.919,76.733 163.265 M83.733 174.377 L 83.733 175.420 82.067 175.654 C 80.999 175.804,80.424 176.004,80.467 176.211 C 80.503 176.388,80.413 176.533,80.267 176.533 C 80.120 176.533,79.998 176.263,79.996 175.933 C 79.994 175.603,79.920 175.063,79.832 174.733 C 79.714 174.292,79.785 174.133,80.102 174.133 C 80.339 174.133,80.533 174.022,80.533 173.885 C 80.533 173.600,81.295 173.422,82.733 173.370 C 83.725 173.334,83.733 173.342,83.733 174.377 M273.456 176.487 C 273.646 177.352,273.195 178.778,272.808 178.538 C 272.270 178.206,271.869 176.247,272.285 175.983 C 272.947 175.564,273.286 175.710,273.456 176.487 M85.664 176.375 C 85.583 176.508,85.782 176.548,86.107 176.463 C 86.622 176.328,86.653 176.363,86.349 176.738 C 86.046 177.110,86.070 177.142,86.533 176.983 C 87.031 176.811,87.035 176.823,86.595 177.165 C 86.316 177.383,86.192 177.709,86.291 177.966 C 86.535 178.602,85.630 178.527,83.016 177.694 C 80.624 176.932,80.403 176.725,81.533 176.306 C 82.422 175.977,85.871 176.035,85.664 176.375 M133.647 187.733 C 133.716 195.646,134.389 200.996,136.028 206.667 C 136.304 207.620,136.560 209.060,136.598 209.867 L 136.667 211.333 134.942 211.414 C 132.720 211.518,132.335 211.403,131.157 210.277 C 130.243 209.404,129.983 208.267,130.698 208.267 C 130.827 208.267,130.924 207.817,130.912 207.267 C 130.901 206.717,130.829 206.423,130.752 206.614 C 130.648 206.874,130.521 206.841,130.248 206.481 C 129.818 205.914,129.755 205.499,130.133 205.733 C 130.288 205.829,130.400 205.573,130.400 205.127 C 130.400 204.703,130.490 204.265,130.600 204.155 C 130.710 204.045,130.818 203.515,130.840 202.977 C 130.893 201.693,131.406 191.983,131.580 188.975 C 131.777 185.561,132.243 183.423,132.823 183.271 C 133.097 183.200,133.236 182.990,133.153 182.774 C 133.074 182.568,133.142 182.400,133.305 182.400 C 133.509 182.400,133.614 184.040,133.647 187.733 M186.744 192.091 C 185.922 193.445,185.436 193.746,185.923 192.600 C 186.257 191.816,187.226 190.604,187.390 190.767 C 187.444 190.822,187.153 191.417,186.744 192.091 M230.452 195.162 C 230.143 195.358,229.483 197.563,228.805 200.667 C 228.676 201.253,228.317 202.633,228.007 203.733 C 227.696 204.833,227.397 205.913,227.341 206.133 C 227.286 206.353,227.222 206.533,227.200 206.533 C 227.178 206.533,227.120 206.740,227.071 206.992 C 226.607 209.404,224.065 213.327,221.059 216.267 C 219.935 217.367,218.946 218.447,218.862 218.667 C 218.746 218.969,218.704 218.978,218.688 218.701 C 218.669 218.379,217.215 219.403,215.708 220.800 C 215.471 221.020,214.900 221.499,214.438 221.864 C 213.335 222.738,213.381 223.242,214.673 224.438 C 215.855 225.532,216.305 226.186,220.111 232.346 C 222.276 235.851,222.778 236.506,223.097 236.242 C 223.664 235.771,223.890 236.185,223.376 236.753 C 223.132 237.023,223.012 237.324,223.111 237.422 C 223.209 237.520,223.149 237.600,222.978 237.600 C 222.807 237.600,222.667 237.780,222.667 238.000 C 222.667 238.220,222.547 238.400,222.400 238.400 C 222.253 238.400,222.160 238.490,222.193 238.600 C 222.226 238.710,221.794 239.511,221.233 240.380 C 219.086 243.707,218.104 246.087,219.280 245.111 C 219.523 244.910,219.727 244.900,219.910 245.083 C 220.092 245.265,220.411 245.265,220.888 245.084 C 221.277 244.936,221.760 244.878,221.961 244.955 C 222.318 245.092,226.411 239.126,227.719 236.562 C 228.400 235.226,228.679 235.814,224.233 229.210 C 219.926 222.813,219.931 223.259,224.128 218.779 C 229.072 213.503,229.992 210.863,231.210 198.471 C 231.545 195.059,231.427 194.544,230.452 195.162 M108.616 201.399 C 109.672 204.396,109.487 204.856,107.706 203.657 C 106.643 202.941,106.107 201.944,105.927 200.352 C 105.624 197.663,107.565 198.418,108.616 201.399 M178.964 201.245 C 178.912 201.776,179.244 202.405,179.495 202.249 C 179.626 202.168,179.733 201.982,179.733 201.835 C 179.733 201.689,179.622 201.637,179.487 201.721 C 179.351 201.805,179.185 201.662,179.118 201.403 C 179.050 201.145,178.981 201.074,178.964 201.245 M112.922 205.885 C 112.838 206.022,112.513 206.133,112.200 206.133 C 111.645 206.133,111.644 206.124,112.146 205.757 C 112.680 205.366,113.190 205.451,112.922 205.885 M185.008 217.533 C 185.077 218.603,184.759 219.733,184.388 219.733 C 184.175 219.733,183.996 219.883,183.992 220.067 C 183.987 220.266,183.881 220.224,183.729 219.963 C 183.562 219.678,183.578 219.215,183.775 218.630 C 184.268 217.167,184.945 216.565,185.008 217.533 M261.498 242.733 C 260.853 246.166,260.134 247.327,259.195 246.453 C 258.585 245.884,258.819 244.663,259.596 244.365 C 259.818 244.279,260.000 244.092,260.000 243.948 C 260.000 243.719,261.344 242.133,261.538 242.133 C 261.578 242.133,261.560 242.403,261.498 242.733 M167.116 243.484 C 168.296 243.930,169.243 244.977,171.317 248.133 C 173.365 251.249,176.146 254.044,178.864 255.716 C 180.536 256.745,183.134 259.776,183.355 260.957 C 183.715 262.874,181.700 264.632,179.810 264.052 C 178.772 263.734,178.718 263.943,179.306 266.018 C 179.511 266.742,179.749 267.826,179.836 268.428 C 179.923 269.030,180.296 270.181,180.664 270.986 C 181.033 271.792,181.676 273.587,182.092 274.975 C 183.093 278.308,183.220 278.507,184.356 278.547 C 185.607 278.590,186.487 279.209,187.057 280.447 C 187.316 281.008,188.156 282.127,188.925 282.933 C 190.672 284.767,191.200 285.553,191.200 286.326 C 191.200 286.660,191.350 286.936,191.533 286.939 C 192.169 286.951,193.092 287.892,193.430 288.875 L 193.770 289.862 194.326 289.110 C 194.632 288.696,195.796 286.559,196.912 284.360 C 198.029 282.161,199.515 279.650,200.215 278.781 C 201.985 276.580,203.200 274.771,203.200 274.336 C 203.200 272.425,206.739 271.725,208.117 273.363 C 209.546 275.061,208.979 276.912,205.718 281.200 C 204.551 282.734,202.975 285.283,202.007 287.200 C 201.082 289.033,199.909 291.150,199.401 291.903 C 198.893 292.656,198.214 293.815,197.893 294.478 C 196.886 296.559,195.468 297.605,194.129 297.255 C 193.544 297.102,193.533 297.115,193.756 297.696 C 193.878 298.015,194.193 298.069,195.216 297.948 C 198.015 297.617,198.978 299.164,199.896 305.467 C 201.069 313.513,200.383 315.912,196.973 315.688 L 195.637 315.600 195.126 317.067 C 194.703 318.280,194.642 318.971,194.774 321.067 C 195.216 328.083,195.229 329.461,194.860 330.133 C 194.521 330.750,194.551 330.850,195.262 331.467 C 196.224 332.301,196.519 333.535,196.527 336.768 C 196.536 340.152,197.238 344.450,197.944 345.442 C 198.323 345.974,198.513 346.690,198.547 347.709 C 198.574 348.529,198.732 349.537,198.898 349.950 C 199.674 351.882,199.596 354.247,198.723 355.224 C 197.040 357.108,194.231 356.098,193.754 353.437 C 193.652 352.867,193.280 351.555,192.929 350.523 C 192.211 348.414,190.933 341.845,190.933 340.265 C 190.933 339.696,190.813 339.157,190.667 339.067 C 190.391 338.896,190.327 339.373,190.383 341.200 C 190.405 341.904,190.198 342.622,189.775 343.310 C 189.227 344.203,189.172 344.491,189.396 345.303 C 189.996 347.478,188.805 353.700,186.580 360.006 C 185.934 361.836,185.253 363.993,185.067 364.800 C 184.221 368.456,182.230 370.667,179.783 370.667 C 176.803 370.667,176.008 367.297,178.405 364.827 C 178.989 364.225,179.467 363.522,179.467 363.265 C 179.467 363.008,180.074 361.058,180.815 358.932 C 182.661 353.644,183.373 350.858,182.918 350.706 C 181.276 350.159,180.865 347.858,182.085 346.048 C 182.766 345.038,183.904 342.286,184.118 341.128 C 184.634 338.345,184.641 338.400,183.793 338.400 C 181.751 338.400,180.915 336.144,182.002 333.566 C 183.345 330.380,184.836 326.270,185.375 324.267 C 185.671 323.167,186.188 321.841,186.524 321.322 C 187.441 319.903,187.581 317.769,187.053 313.276 C 186.627 309.652,186.626 309.224,187.037 306.764 C 188.004 300.985,188.044 298.882,187.260 295.200 C 186.870 293.367,186.546 291.195,186.542 290.374 C 186.534 288.920,186.492 288.837,184.908 287.142 L 183.283 285.402 182.641 285.895 C 180.601 287.464,178.410 285.953,178.116 282.775 C 177.909 280.535,176.529 275.991,175.191 273.141 C 174.763 272.229,174.286 270.687,174.130 269.714 C 173.975 268.741,173.674 267.207,173.461 266.306 C 172.705 263.099,173.131 261.154,174.697 260.657 L 175.246 260.483 174.689 260.093 C 173.943 259.569,173.741 259.742,172.667 261.820 C 171.501 264.076,171.056 264.641,170.643 264.386 C 170.446 264.264,170.386 264.295,170.491 264.465 C 170.586 264.619,170.575 265.148,170.465 265.639 C 170.298 266.390,170.245 266.214,170.130 264.533 C 169.982 262.360,169.984 262.360,168.948 264.933 L 168.519 266.000 168.622 264.000 C 168.701 262.483,168.896 261.685,169.430 260.694 C 169.817 259.975,170.133 259.181,170.133 258.930 C 170.133 258.678,170.367 258.175,170.653 257.811 L 171.173 257.151 169.968 255.975 C 169.306 255.329,167.970 253.630,167.000 252.200 C 165.673 250.243,165.092 249.600,164.654 249.600 C 164.334 249.600,163.764 249.358,163.389 249.062 C 160.576 246.850,163.691 242.189,167.116 243.484 M216.533 247.695 C 216.533 248.578,219.656 251.064,219.880 250.359 C 220.026 249.898,219.808 249.536,218.798 248.568 C 217.407 247.236,216.533 246.899,216.533 247.695 M102.030 253.192 C 101.787 253.563,101.467 253.867,101.319 253.867 C 101.172 253.867,101.316 253.508,101.640 253.070 C 102.341 252.122,102.665 252.223,102.030 253.192 M303.467 254.667 C 303.467 254.813,303.350 254.933,303.207 254.933 C 303.041 254.933,303.037 255.170,303.195 255.587 C 303.395 256.114,303.368 256.212,303.055 256.092 C 302.842 256.010,302.667 256.076,302.667 256.238 C 302.667 256.400,302.547 256.533,302.400 256.533 C 302.253 256.533,302.133 256.353,302.133 256.133 C 302.133 255.913,302.320 255.733,302.549 255.733 C 302.778 255.733,302.897 255.624,302.815 255.491 C 302.622 255.179,302.918 254.400,303.229 254.400 C 303.360 254.400,303.467 254.520,303.467 254.667 M251.892 279.508 C 252.003 279.687,251.966 279.744,251.805 279.644 C 251.652 279.550,251.465 279.711,251.389 280.003 C 251.309 280.306,251.382 280.535,251.558 280.537 C 251.770 280.540,251.777 280.603,251.582 280.737 C 251.426 280.845,250.892 281.533,250.395 282.267 C 249.898 283.000,249.336 283.759,249.146 283.952 C 248.734 284.372,248.696 284.971,249.067 285.200 C 249.386 285.397,249.409 286.135,249.110 286.605 C 248.939 286.875,248.666 286.862,247.753 286.540 C 247.124 286.318,246.502 286.204,246.369 286.286 C 245.913 286.568,245.067 286.099,245.067 285.564 C 245.067 284.906,245.445 284.181,246.507 282.800 C 246.959 282.213,247.356 281.686,247.391 281.629 C 247.425 281.571,247.626 281.667,247.836 281.841 C 248.149 282.101,248.273 281.990,248.528 281.217 C 248.777 280.463,249.032 280.223,249.819 280.005 C 250.359 279.856,250.980 279.615,251.200 279.471 C 251.700 279.143,251.665 279.141,251.892 279.508 M264.776 284.507 C 264.462 285.555,264.000 285.992,264.000 285.241 C 264.000 284.766,264.821 283.132,264.980 283.291 C 265.048 283.359,264.956 283.906,264.776 284.507 M256.000 284.995 C 256.000 285.323,255.926 285.337,255.600 285.067 C 255.380 284.884,255.200 284.633,255.200 284.509 C 255.200 284.385,255.380 284.352,255.600 284.437 C 255.820 284.521,256.000 284.772,256.000 284.995 M255.978 286.571 C 256.039 286.624,255.709 286.667,255.244 286.667 C 254.780 286.667,254.400 286.544,254.400 286.395 C 254.400 286.156,255.659 286.296,255.978 286.571 M192.995 305.933 C 192.307 310.398,192.307 310.400,193.636 310.400 L 194.739 310.400 194.564 309.133 C 194.468 308.437,194.253 306.757,194.085 305.400 C 193.694 302.226,193.556 302.293,192.995 305.933 M176.062 331.554 C 175.767 332.055,175.438 332.990,175.331 333.632 C 175.224 334.275,174.987 335.100,174.804 335.467 C 174.405 336.266,174.116 338.625,174.397 338.798 C 174.938 339.132,174.105 341.351,173.018 342.469 C 172.625 342.873,171.912 343.893,171.434 344.736 C 170.956 345.578,170.468 346.307,170.349 346.356 C 170.230 346.404,170.133 346.614,170.133 346.822 C 170.133 347.030,170.021 347.200,169.885 347.200 C 169.748 347.200,169.552 347.470,169.450 347.800 C 169.347 348.130,169.055 348.700,168.801 349.067 C 167.999 350.224,166.496 353.158,166.138 354.267 C 164.886 358.139,163.540 359.826,158.000 364.468 C 156.124 366.041,153.521 368.705,153.118 369.467 C 152.879 369.918,152.847 369.853,152.910 369.044 C 152.956 368.465,153.711 366.784,154.826 364.778 C 155.838 362.957,156.941 360.920,157.276 360.252 C 157.611 359.584,158.243 358.826,158.680 358.568 C 159.117 358.310,159.646 357.687,159.857 357.183 C 160.067 356.679,160.364 356.267,160.517 356.267 C 160.754 356.267,162.660 354.706,164.356 353.123 C 164.625 352.872,165.337 351.647,165.939 350.400 C 166.541 349.153,167.863 347.055,168.878 345.737 C 171.130 342.812,172.267 340.606,173.298 337.162 C 174.222 334.072,174.951 332.315,175.770 331.208 C 176.547 330.156,176.748 330.393,176.062 331.554 M158.867 338.850 C 158.365 338.982,158.228 339.862,158.667 340.133 C 158.814 340.225,158.933 340.030,158.933 339.698 C 158.933 339.113,158.943 339.111,159.325 339.616 C 159.540 339.900,159.720 339.993,159.725 339.822 C 159.730 339.650,159.806 339.320,159.895 339.088 C 160.059 338.662,159.808 338.604,158.867 338.850 M205.896 342.944 C 205.551 343.807,205.495 342.599,205.803 340.933 L 206.000 339.867 206.079 341.077 C 206.122 341.742,206.040 342.582,205.896 342.944 M158.331 342.680 L 157.062 343.369 157.618 343.884 C 157.924 344.168,158.492 344.730,158.880 345.133 C 159.597 345.879,160.267 346.096,160.267 345.584 C 160.267 345.429,160.398 345.383,160.559 345.482 C 160.738 345.593,160.557 345.857,160.092 346.163 C 159.150 346.784,159.771 346.832,160.810 346.218 L 161.568 345.770 160.737 344.721 C 160.280 344.143,159.837 343.293,159.753 342.831 L 159.600 341.991 158.331 342.680 M173.758 344.839 C 173.661 345.447,173.157 347.157,172.639 348.639 C 172.120 350.121,171.030 353.253,170.217 355.600 C 168.180 361.475,168.067 361.669,164.491 365.390 C 163.561 366.358,162.505 367.536,162.144 368.007 C 157.943 373.501,155.961 375.454,155.434 374.623 C 155.153 374.179,155.133 373.794,155.400 373.957 C 155.510 374.024,155.621 373.676,155.647 373.183 C 155.728 371.632,158.335 368.520,163.518 363.786 C 166.402 361.151,167.979 358.804,169.287 355.200 C 169.580 354.393,170.411 352.353,171.134 350.667 C 171.857 348.980,172.711 346.730,173.032 345.667 C 173.676 343.531,174.032 343.126,173.758 344.839 M205.894 344.973 C 205.537 346.309,205.518 354.133,205.871 354.133 C 206.015 354.133,206.133 354.260,206.133 354.416 C 206.133 354.571,206.001 354.616,205.838 354.516 C 205.635 354.390,205.593 354.592,205.705 355.167 C 206.114 357.276,206.078 357.604,205.597 356.133 C 204.995 354.292,204.832 346.946,205.357 345.306 C 205.516 344.808,205.699 344.233,205.763 344.028 C 206.028 343.180,206.146 344.029,205.894 344.973 M145.747 352.683 C 145.240 353.458,141.767 353.637,142.060 352.874 C 142.132 352.685,142.000 352.533,141.762 352.533 C 140.962 352.533,141.329 353.286,142.823 354.712 C 144.599 356.407,144.844 356.449,145.123 355.106 C 145.240 354.540,145.556 353.760,145.825 353.372 C 146.602 352.248,146.715 352.000,146.446 352.000 C 146.308 352.000,145.993 352.307,145.747 352.683 M187.889 367.067 C 187.831 368.533,187.670 370.029,187.532 370.390 L 187.280 371.047 186.973 370.474 C 186.464 369.522,186.736 364.380,187.278 364.715 C 187.437 364.813,187.467 364.749,187.349 364.559 C 187.240 364.382,187.237 363.913,187.343 363.518 L 187.536 362.800 187.765 363.600 C 187.891 364.040,187.947 365.600,187.889 367.067 M212.785 369.575 C 212.796 369.858,212.669 369.831,212.267 369.467 C 211.892 369.128,211.738 368.659,211.748 367.892 L 211.763 366.800 212.267 368.000 C 212.544 368.660,212.777 369.369,212.785 369.575 M212.755 375.214 C 212.599 375.661,212.411 375.967,212.337 375.893 C 212.126 375.681,212.515 374.400,212.791 374.400 C 212.936 374.400,212.921 374.738,212.755 375.214 M215.796 375.834 C 215.721 375.963,215.550 375.872,215.415 375.632 C 215.281 375.392,215.258 375.055,215.365 374.882 C 215.592 374.515,216.018 375.455,215.796 375.834 M217.408 376.456 C 217.239 376.897,217.118 376.889,216.630 376.402 C 216.277 376.048,216.305 376.009,216.886 376.057 C 217.298 376.091,217.492 376.239,217.408 376.456 " stroke="none" fill="#000000" fill-rule="evenodd"></path></g></svg>