<svg id="svg" xmlns="http://www.w3.org/2000/svg" xmlns:xlink="http://www.w3.org/1999/xlink" width="400" height="402.6845637583893" viewBox="0, 0, 400,402.6845637583893"><g id="svgg"><path id="path0" d="M206.213 17.450 C 206.666 20.034,208.451 26.066,210.179 30.856 C 213.869 41.082,213.393 41.929,203.750 42.315 C 191.742 42.795,189.265 44.446,189.243 51.980 C 189.219 60.609,188.047 64.425,185.414 64.450 C 183.748 64.466,183.640 64.736,184.964 65.576 C 187.049 66.899,182.410 85.657,179.548 87.473 C 178.280 88.278,178.382 88.555,179.953 88.570 C 181.108 88.581,183.046 90.673,184.259 93.217 C 185.971 96.806,187.532 98.044,191.219 98.736 C 196.382 99.704,197.991 103.974,193.624 105.115 C 191.791 105.594,191.913 105.763,194.183 105.885 C 195.783 105.970,197.361 105.285,197.691 104.362 C 198.954 100.825,199.769 104.446,200.180 115.424 C 200.539 125.030,200.268 126.887,198.455 127.236 C 195.804 127.746,183.893 120.722,183.893 118.649 C 183.893 117.167,175.114 115.436,167.598 115.436 C 163.977 115.436,163.758 115.112,163.751 109.732 C 163.738 100.109,161.415 94.360,155.672 89.745 C 152.765 87.409,150.030 84.373,149.593 82.998 C 149.157 81.623,148.290 80.813,147.667 81.198 C 147.044 81.583,144.462 79.478,141.930 76.520 C 136.558 70.243,128.823 69.338,113.807 73.229 C 103.054 76.015,97.838 75.414,95.688 71.141 C 94.684 69.146,93.991 68.633,93.980 69.878 C 93.920 76.164,102.552 78.892,113.423 76.022 C 117.180 75.030,117.068 75.235,111.757 79.090 C 102.839 85.562,100.420 84.875,87.293 72.148 C 81.011 66.057,77.998 63.490,80.597 66.443 C 90.371 77.548,90.174 78.208,79.994 68.456 C 65.013 54.104,67.880 58.963,85.331 77.502 C 101.678 94.867,123.490 125.635,123.490 131.328 C 123.490 132.020,121.481 132.964,119.025 133.425 C 116.570 133.885,113.398 135.194,111.978 136.333 C 109.450 138.360,109.452 138.377,112.081 137.163 C 124.266 131.537,128.859 135.557,128.859 151.852 C 128.859 158.402,129.606 161.441,132.377 166.170 L 135.895 172.172 154.860 171.357 C 166.541 170.854,172.794 171.007,171.141 171.753 C 169.664 172.420,165.261 173.008,161.356 173.060 C 151.234 173.195,129.150 175.789,125.721 177.246 C 122.666 178.545,122.300 178.567,138.705 176.470 C 142.275 176.013,151.231 176.068,158.607 176.591 L 172.018 177.542 183.324 190.241 C 191.632 199.572,194.631 203.910,194.631 206.598 L 194.631 210.256 180.592 208.003 C 172.870 206.763,165.061 204.773,163.239 203.578 C 159.011 200.808,149.601 204.468,144.633 210.816 L 141.468 214.860 135.248 205.081 C 131.827 199.703,127.631 194.461,125.924 193.434 L 122.819 191.566 125.503 194.668 L 128.188 197.771 125.503 196.742 C 124.027 196.177,117.631 193.855,111.291 191.583 L 99.763 187.451 89.814 189.779 C 84.343 191.059,76.846 193.375,73.154 194.925 C 61.865 199.665,56.403 200.187,51.007 197.042 L 46.309 194.303 50.336 197.775 C 55.111 201.891,59.524 202.180,69.521 199.028 L 76.863 196.714 80.842 201.377 C 83.031 203.942,88.115 210.692,92.141 216.377 C 101.058 228.971,107.454 231.678,114.765 225.955 C 116.980 224.221,121.028 221.600,123.761 220.131 L 128.731 217.461 132.151 221.944 C 136.157 227.197,136.484 229.519,133.221 229.560 C 131.930 229.576,129.362 230.771,127.517 232.215 C 125.671 233.658,122.651 234.896,120.805 234.964 C 117.815 235.074,117.737 235.200,120.089 236.120 C 121.824 236.798,124.237 236.261,127.136 234.550 C 130.310 232.677,131.544 232.437,131.544 233.693 C 131.544 235.049,131.902 235.078,133.154 233.826 C 138.263 228.716,142.955 234.613,141.927 244.851 C 140.708 256.989,144.400 265.815,151.693 268.198 C 159.522 270.756,159.608 270.878,155.685 273.860 C 152.904 275.973,150.787 276.280,142.953 275.707 C 137.785 275.329,131.745 275.657,129.530 276.437 L 125.503 277.854 130.201 277.335 C 132.785 277.050,138.826 277.558,143.624 278.464 C 151.842 280.015,152.717 279.928,158.680 276.968 C 170.789 270.958,180.768 272.270,192.008 281.351 C 199.340 287.275,201.194 289.489,200.721 291.754 C 197.948 305.021,192.883 345.575,191.225 367.785 C 190.756 374.060,189.774 381.546,189.043 384.421 C 187.442 390.709,188.089 391.281,198.144 392.463 C 210.198 393.880,223.195 390.936,220.298 387.446 C 216.135 382.430,214.908 294.803,218.738 275.960 C 220.670 266.453,230.874 253.085,235.162 254.446 C 236.494 254.868,237.584 254.555,237.584 253.749 C 237.584 252.942,239.161 251.683,241.089 250.950 C 244.014 249.838,244.496 248.956,244.006 245.614 C 243.360 241.218,244.404 240.520,246.980 243.624 C 248.976 246.029,250.147 246.081,259.087 244.164 C 267.792 242.297,267.107 241.188,258.276 242.852 C 251.905 244.052,245.638 241.402,245.638 237.506 C 245.638 234.900,252.935 235.325,255.153 238.061 C 256.437 239.644,257.975 240.454,258.570 239.860 C 259.166 239.266,258.828 238.270,257.819 237.646 C 251.041 233.457,263.418 227.670,273.917 230.119 C 281.767 231.950,281.861 231.937,287.065 228.166 C 289.948 226.078,294.038 224.111,296.153 223.795 C 299.825 223.247,299.795 223.212,295.509 223.020 C 292.815 222.899,289.420 223.957,287.024 225.663 C 284.023 227.800,281.843 228.315,278.261 227.734 C 271.608 226.655,271.426 226.050,276.253 221.071 C 279.476 217.746,280.697 215.060,281.281 210.017 C 282.634 198.331,283.046 197.460,288.532 194.661 C 293.794 191.976,293.807 191.976,300.031 194.644 C 309.589 198.741,318.560 197.181,320.905 191.014 L 322.155 187.726 329.198 191.679 C 339.272 197.331,345.344 196.449,349.197 188.773 C 350.730 185.720,353.426 181.299,355.187 178.949 C 356.948 176.599,358.389 174.250,358.389 173.730 C 358.389 172.111,350.133 182.997,347.978 187.459 C 345.084 193.449,339.854 193.970,332.084 189.042 C 328.782 186.948,325.498 185.235,324.786 185.235 C 322.483 185.235,323.406 177.464,326.773 168.521 C 328.578 163.724,329.567 159.498,328.969 159.128 C 328.043 158.556,321.436 171.621,319.019 178.805 C 318.302 180.936,317.746 180.952,311.275 179.030 L 304.304 176.960 301.194 180.762 C 296.678 186.282,297.721 189.335,302.493 184.564 C 303.600 183.456,305.153 182.550,305.944 182.550 C 307.758 182.550,307.822 184.805,306.040 185.906 C 305.302 186.362,304.698 187.371,304.698 188.147 C 304.698 188.924,305.804 188.193,307.156 186.524 C 310.441 182.466,317.187 183.711,316.530 188.253 C 315.802 193.291,308.430 193.735,298.761 189.323 C 290.655 185.625,278.252 182.182,267.573 180.666 C 262.108 179.890,261.891 180.013,257.191 186.555 C 254.551 190.230,250.275 194.607,247.689 196.283 C 245.102 197.958,242.979 200.154,242.970 201.163 C 242.953 202.962,241.498 202.860,235.570 200.643 L 232.886 199.639 235.570 201.766 C 238.246 203.887,238.245 203.901,235.355 205.966 C 229.454 210.182,223.147 220.584,221.958 228.061 C 220.832 235.151,218.668 237.382,215.142 235.090 C 212.023 233.061,204.027 207.635,204.027 199.743 C 204.027 177.902,237.686 159.150,261.139 167.925 C 268.314 170.610,269.031 170.645,275.619 168.638 L 282.550 166.526 276.044 167.328 C 263.102 168.922,255.716 164.299,263.690 159.594 C 268.301 156.873,270.279 152.492,273.109 138.730 C 274.172 133.562,287.164 124.146,291.623 125.312 C 293.593 125.827,293.941 125.618,292.879 124.557 C 291.363 123.041,301.492 114.094,304.724 114.094 C 307.326 114.094,323.891 121.060,329.168 124.373 C 339.388 130.790,344.446 129.228,354.854 116.443 L 363.868 105.369 354.082 115.780 C 343.332 127.216,340.617 128.225,333.557 123.411 C 313.631 109.825,305.706 108.426,293.809 116.396 C 288.355 120.049,281.035 124.797,277.542 126.947 C 270.858 131.059,267.006 137.567,265.058 148.034 C 263.658 155.562,249.913 160.808,243.629 156.213 C 241.375 154.565,241.980 154.362,249.161 154.362 C 259.437 154.362,263.087 149.444,263.087 135.598 C 263.087 128.282,263.429 127.176,265.885 126.534 C 267.756 126.044,268.154 125.475,267.086 124.815 C 265.908 124.087,266.143 122.825,267.979 120.010 C 270.375 116.338,270.486 116.306,270.899 119.170 C 271.416 122.760,272.701 122.917,276.054 119.799 C 277.444 118.507,277.994 117.903,277.277 118.456 C 274.929 120.270,273.826 119.519,273.826 116.107 C 273.826 114.262,273.252 112.752,272.552 112.752 C 270.946 112.752,264.430 121.199,264.430 123.281 C 264.430 124.134,263.221 126.040,261.745 127.517 C 259.847 129.415,259.060 131.991,259.060 136.308 C 259.060 139.667,258.003 144.348,256.711 146.711 L 254.362 151.007 253.683 140.940 L 253.004 130.872 251.854 140.760 L 250.703 150.648 245.150 149.771 C 242.096 149.288,235.885 148.536,231.348 148.099 C 223.578 147.352,222.803 146.952,217.999 141.205 L 212.900 135.104 216.517 128.625 C 218.720 124.679,220.134 120.099,220.134 116.908 C 220.134 112.502,220.934 110.998,225.168 107.440 L 230.201 103.210 224.497 106.817 C 219.232 110.145,218.792 110.868,218.792 116.183 C 218.792 120.442,217.848 123.105,215.168 126.407 C 213.175 128.863,211.363 131.124,211.141 131.432 C 209.546 133.646,209.744 129.697,211.430 125.660 C 212.569 122.935,213.365 118.699,213.200 116.246 C 212.981 113.002,214.022 110.361,217.014 106.564 C 222.113 100.095,232.215 83.651,232.215 81.822 C 232.215 81.078,233.988 80.115,236.156 79.682 C 238.323 79.248,240.451 77.970,240.885 76.841 C 241.537 75.140,241.322 75.079,239.628 76.485 C 237.904 77.915,237.584 77.725,237.584 75.267 C 237.584 73.142,239.131 71.644,243.289 69.740 L 248.993 67.128 252.685 71.433 C 254.715 73.800,256.376 75.079,256.376 74.275 C 256.376 73.470,255.470 72.060,254.362 71.141 C 253.255 70.222,252.349 68.703,252.349 67.766 C 252.349 65.999,253.303 65.675,266.040 63.118 C 278.533 60.611,281.879 55.700,281.879 39.873 C 281.879 28.945,282.194 27.295,284.564 25.815 C 286.040 24.893,287.210 23.086,287.163 21.801 C 287.099 20.023,286.787 20.187,285.864 22.483 C 283.856 27.480,281.419 26.173,282.326 20.586 C 282.795 17.694,282.631 16.173,281.926 16.894 C 281.267 17.569,280.534 20.144,280.297 22.618 L 279.866 27.115 264.515 27.316 L 249.164 27.517 242.814 36.708 C 239.321 41.763,235.071 47.382,233.368 49.195 C 230.778 51.951,230.233 54.094,230.039 62.287 C 229.656 78.393,219.415 90.535,210.305 85.681 C 207.791 84.342,207.610 84.400,209.012 86.101 C 210.343 87.716,209.926 88.706,206.736 91.505 C 202.905 94.866,199.778 93.550,202.216 89.604 C 202.777 88.697,202.451 88.577,201.322 89.275 C 200.042 90.065,199.777 89.766,200.375 88.208 C 200.968 86.663,200.629 86.264,199.191 86.816 C 197.746 87.370,197.416 88.678,198.024 91.445 C 198.745 94.728,198.455 95.302,196.080 95.302 C 192.451 95.302,192.340 90.719,195.896 87.674 C 197.650 86.172,198.147 84.749,197.415 83.325 C 195.092 78.807,194.495 71.352,196.366 70.225 C 198.433 68.981,200.439 64.430,198.921 64.430 C 196.512 64.430,192.953 73.824,193.785 77.985 C 194.750 82.811,192.918 85.906,189.097 85.906 C 187.181 85.906,186.577 84.922,186.577 81.800 C 186.577 79.007,187.079 78.004,188.148 78.664 C 189.209 79.320,189.435 78.898,188.846 77.362 C 188.366 76.111,188.862 72.841,189.949 70.094 C 191.035 67.348,192.382 60.899,192.942 55.764 C 194.088 45.247,194.782 44.687,207.000 44.429 C 215.119 44.257,217.323 41.143,213.946 34.613 C 212.712 32.227,210.282 26.332,208.545 21.513 C 206.711 16.422,205.734 14.720,206.213 17.450 M275.000 29.027 L 279.195 29.866 279.195 40.772 C 279.195 51.475,279.114 51.742,274.832 55.119 C 270.342 58.661,248.295 64.058,245.464 62.309 C 244.712 61.844,242.782 62.645,241.176 64.089 C 237.206 67.657,233.460 68.928,234.440 66.375 C 234.851 65.305,234.518 64.430,233.701 64.430 C 229.744 64.430,232.369 55.230,238.720 46.840 C 242.299 42.114,246.219 36.326,247.433 33.979 C 248.920 31.103,250.848 29.528,253.343 29.151 C 259.588 28.206,270.581 28.143,275.000 29.027 M142.953 82.226 C 149.444 90.329,149.686 90.944,150.336 100.945 C 151.103 112.763,149.249 113.080,148.037 101.338 C 147.286 94.061,146.696 92.998,138.718 84.541 C 129.251 74.505,128.900 73.821,133.221 73.836 C 135.307 73.844,138.318 76.440,142.953 82.226 M130.480 81.480 C 136.199 87.065,136.586 88.128,133.221 89.008 C 131.871 89.360,132.585 89.706,134.899 89.819 C 140.009 90.070,143.005 94.125,143.909 102.013 C 145.244 113.648,147.962 117.802,154.924 118.846 C 158.306 119.353,161.074 120.187,161.074 120.699 C 161.074 122.692,150.070 126.357,145.317 125.948 C 141.109 125.585,140.299 125.940,140.188 128.195 C 140.116 129.668,139.934 139.027,139.784 148.993 C 139.540 165.248,139.309 166.846,137.541 164.509 C 136.307 162.877,135.570 158.834,135.570 153.695 C 135.570 139.737,130.787 128.714,114.906 106.081 C 109.059 97.746,108.542 96.454,110.208 94.331 C 111.917 92.155,111.872 92.110,109.699 93.815 C 108.389 94.843,107.181 95.441,107.015 95.143 C 106.848 94.845,104.597 92.266,102.013 89.411 L 97.315 84.220 101.314 84.936 C 104.081 85.431,106.514 84.796,109.213 82.874 C 112.897 80.251,121.288 76.698,124.104 76.569 C 124.812 76.537,127.681 78.747,130.480 81.480 M221.977 89.860 C 220.693 92.035,219.139 93.503,218.524 93.123 C 216.852 92.089,220.738 85.906,223.059 85.906 C 223.749 85.906,223.262 87.685,221.977 89.860 M191.946 88.481 C 191.946 90.687,190.343 93.960,189.262 93.960 C 187.809 93.960,186.399 89.966,187.323 88.469 C 188.307 86.877,191.946 86.886,191.946 88.481 M213.423 91.019 C 213.423 94.045,209.543 97.282,207.881 95.643 C 206.517 94.297,206.696 93.583,208.797 91.994 C 211.742 89.767,213.423 89.412,213.423 91.019 M155.984 99.790 C 155.685 102.347,156.390 106.157,157.592 108.481 C 160.397 113.905,160.291 115.436,157.110 115.436 C 153.860 115.436,151.696 108.528,151.685 98.114 C 151.678 91.210,151.795 90.965,154.097 93.048 C 155.788 94.579,156.356 96.607,155.984 99.790 M215.285 98.700 C 214.061 100.568,212.797 101.835,212.477 101.515 C 211.681 100.719,215.154 95.302,216.461 95.302 C 217.039 95.302,216.510 96.831,215.285 98.700 M159.711 105.113 C 159.722 106.448,159.128 107.168,158.389 106.711 C 157.651 106.255,157.056 104.256,157.068 102.270 C 157.084 99.445,157.372 99.096,158.389 100.671 C 159.105 101.779,159.700 103.777,159.711 105.113 M184.756 125.839 C 189.996 129.150,192.013 132.151,188.557 131.497 C 186.980 131.199,176.802 122.148,178.043 122.148 C 178.522 122.148,181.542 123.809,184.756 125.839 M172.390 125.378 C 180.610 128.813,196.972 145.671,198.002 151.768 C 198.851 156.797,196.392 190.542,195.076 191.920 C 193.536 193.531,178.688 175.095,179.421 172.483 C 179.836 171.007,180.256 169.236,180.356 168.549 C 180.758 165.770,166.741 164.010,155.569 165.437 C 142.389 167.119,142.939 167.724,141.733 150.221 C 140.359 130.263,141.076 127.911,148.784 127.106 C 152.221 126.747,157.148 125.848,159.732 125.109 C 166.311 123.226,167.291 123.247,172.390 125.378 M211.806 147.308 C 211.045 148.226,210.738 150.632,211.125 152.653 C 211.534 154.792,210.899 158.021,209.605 160.379 L 207.383 164.430 206.965 156.376 C 206.736 151.946,206.919 146.332,207.373 143.900 L 208.198 139.478 210.694 142.558 C 212.469 144.748,212.790 146.120,211.806 147.308 M218.153 151.779 C 218.639 153.311,218.647 154.955,218.170 155.431 C 217.164 156.437,214.816 153.134,214.786 150.671 C 214.752 147.951,217.193 148.754,218.153 151.779 M241.900 158.142 C 242.671 158.913,241.698 159.741,239.360 160.304 C 237.276 160.806,230.866 163.643,225.116 166.609 C 219.367 169.575,214.127 171.808,213.474 171.571 C 211.227 170.758,215.700 163.085,219.593 161.076 C 221.736 159.970,224.016 158.232,224.659 157.214 C 225.967 155.143,239.637 155.879,241.900 158.142 M283.221 190.051 C 285.067 191.034,285.863 191.863,284.990 191.893 C 283.453 191.945,281.073 196.949,281.613 198.993 C 281.760 199.547,281.240 200.000,280.458 200.000 C 279.676 200.000,279.467 200.697,279.994 201.550 C 280.587 202.510,280.362 202.735,279.402 202.142 C 278.550 201.615,277.814 200.162,277.767 198.914 C 277.638 195.454,275.726 200.731,274.525 207.865 C 273.088 216.403,266.522 222.211,261.745 219.170 L 258.389 217.034 260.946 219.926 C 263.119 222.384,263.184 222.819,261.378 222.819 C 260.209 222.819,258.214 223.857,256.944 225.126 C 255.675 226.396,253.159 227.632,251.353 227.874 C 249.547 228.116,245.710 229.803,242.827 231.623 C 237.017 235.291,236.543 235.051,239.796 230.087 C 241.124 228.060,242.793 227.012,243.972 227.465 C 245.383 228.006,245.692 227.581,245.069 225.957 C 242.444 219.117,245.733 211.891,252.916 208.714 C 257.725 206.587,260.336 204.479,261.455 201.818 C 263.049 198.025,263.043 198.018,260.853 201.076 C 258.781 203.970,249.888 208.725,248.725 207.562 C 248.435 207.272,250.655 205.089,253.658 202.711 C 256.661 200.332,260.967 195.700,263.226 192.416 C 267.672 185.953,274.104 185.193,283.221 190.051 M108.881 194.873 C 112.856 196.483,116.301 197.934,116.537 198.099 C 116.773 198.263,115.716 200.848,114.188 203.843 C 112.660 206.838,111.436 209.766,111.469 210.349 C 111.501 210.932,112.739 209.114,114.220 206.308 C 118.364 198.456,121.830 198.657,132.215 207.353 L 136.242 210.725 131.837 210.732 C 129.165 210.736,127.129 211.530,126.660 212.752 C 126.235 213.859,125.197 214.772,124.353 214.779 C 123.509 214.787,120.728 216.945,118.174 219.574 C 112.350 225.566,106.310 225.164,100.000 218.364 C 79.867 196.669,79.402 195.771,87.248 193.732 C 96.256 191.391,100.888 191.635,108.881 194.873 M158.389 208.500 C 158.389 208.746,155.904 210.944,152.867 213.384 C 147.645 217.581,147.472 217.628,149.686 214.249 C 152.380 210.138,158.389 206.169,158.389 208.500 M181.699 214.758 C 198.284 217.857,198.658 218.007,198.658 221.556 C 198.658 224.750,192.620 225.187,189.351 222.229 C 188.177 221.166,184.203 219.935,180.521 219.494 C 176.838 219.054,172.566 218.427,171.028 218.101 C 169.165 217.708,166.950 218.846,164.401 221.507 C 159.984 226.117,158.824 226.414,157.972 223.154 C 157.501 221.350,157.322 221.491,157.203 223.762 C 156.688 233.538,152.209 235.750,148.133 228.240 L 145.259 222.946 153.895 216.983 C 158.645 213.703,163.563 211.248,164.823 211.527 C 166.083 211.805,173.677 213.260,181.699 214.758 M242.953 213.998 C 242.953 215.791,242.004 218.207,240.844 219.367 C 239.355 220.856,239.235 221.477,240.436 221.477 C 241.372 221.477,240.088 223.591,237.584 226.174 C 228.980 235.051,227.926 228.130,236.273 217.570 C 242.429 209.782,242.953 209.502,242.953 213.998 M246.980 217.875 C 246.980 221.528,253.085 225.838,254.996 223.535 C 256.412 221.829,256.331 221.477,254.527 221.477 C 253.329 221.477,252.349 221.018,252.349 220.457 C 252.349 219.896,251.141 218.683,249.664 217.761 C 247.484 216.399,246.980 216.421,246.980 217.875 M179.329 222.819 C 180.615 222.819,180.914 223.955,180.358 226.732 C 179.677 230.138,180.259 231.141,184.847 234.464 C 189.578 237.892,190.012 238.682,189.076 242.181 C 187.909 246.547,188.539 248.322,191.259 248.322 C 192.270 248.322,194.046 249.271,195.206 250.431 C 197.102 252.327,197.315 252.330,197.315 250.457 C 197.315 249.311,195.805 247.994,193.960 247.531 C 192.114 247.068,190.604 246.190,190.604 245.579 C 190.604 242.493,193.468 237.584,195.269 237.584 C 198.136 237.584,197.842 233.578,194.966 233.463 C 192.958 233.382,193.006 233.201,195.302 232.215 C 201.553 229.528,202.206 230.290,205.746 244.410 L 209.141 257.948 206.584 266.889 C 205.177 271.807,204.027 276.024,204.027 276.262 C 204.027 277.979,195.523 270.132,194.517 267.487 C 193.499 264.809,192.607 264.310,190.006 264.962 C 188.223 265.410,185.315 265.226,183.545 264.553 C 181.775 263.879,176.750 263.022,172.378 262.647 C 168.006 262.272,162.686 261.527,160.555 260.992 L 156.681 260.020 157.405 245.829 L 158.129 231.638 163.734 226.411 C 168.482 221.982,169.963 221.308,173.427 222.001 C 175.677 222.451,178.332 222.819,179.329 222.819 M153.630 244.905 C 153.117 248.329,152.395 250.829,152.026 250.460 C 151.656 250.090,151.775 246.987,152.288 243.563 C 152.801 240.139,153.524 237.640,153.893 238.009 C 154.262 238.378,154.144 241.482,153.630 244.905 M224.161 242.203 C 224.161 243.266,223.464 244.568,222.611 245.095 C 221.580 245.732,221.429 245.457,222.160 244.275 C 222.970 242.965,222.638 242.735,220.904 243.400 C 217.828 244.581,215.192 243.016,217.642 241.464 C 220.495 239.656,224.161 240.072,224.161 242.203 " stroke="none" fill="#000000" fill-rule="evenodd"></path></g></svg>