<svg id="svg" xmlns="http://www.w3.org/2000/svg" xmlns:xlink="http://www.w3.org/1999/xlink" width="400" height="399.36" viewBox="0, 0, 400,399.36"><g id="svgg"><path id="path0" d="M123.285 69.568 C 117.586 77.385,114.554 82.102,114.541 83.168 C 114.531 84.066,113.988 97.616,113.334 113.280 L 112.145 141.760 105.244 157.300 C 97.313 175.159,97.332 174.609,104.693 173.514 C 110.883 172.593,110.588 171.514,107.559 183.995 C 104.641 196.021,104.626 195.840,108.518 195.840 C 112.039 195.840,112.050 194.354,108.386 213.492 L 105.412 229.024 108.676 232.686 C 110.471 234.700,112.088 237.097,112.269 238.014 C 112.451 238.930,113.651 246.592,114.937 255.040 L 117.274 270.400 124.944 283.840 L 132.614 297.280 163.273 319.586 C 183.385 334.218,194.273 341.761,194.923 341.512 C 196.413 340.940,252.864 299.592,254.782 297.668 C 255.696 296.750,259.639 290.495,263.544 283.766 L 270.644 271.532 272.495 254.240 L 274.347 236.948 276.831 234.794 C 278.198 233.609,280.130 231.920,281.125 231.040 L 282.933 229.440 281.125 213.020 L 279.316 196.599 281.738 196.212 C 284.819 195.720,284.823 195.414,281.920 183.590 C 280.688 178.572,279.680 174.199,279.680 173.871 C 279.680 173.316,283.273 173.570,288.473 174.492 C 291.915 175.103,291.604 173.782,284.500 157.605 L 277.739 142.211 276.797 117.026 C 276.279 103.173,275.852 89.680,275.847 87.040 L 275.840 82.239 267.154 70.240 C 261.680 62.677,258.061 58.240,257.367 58.240 C 256.761 58.240,249.601 65.224,241.456 73.760 C 233.311 82.296,225.352 90.544,223.768 92.090 L 220.889 94.899 215.428 93.530 C 207.529 91.549,179.164 91.485,172.945 93.435 L 168.930 94.694 162.348 87.827 C 158.727 84.050,150.773 75.704,144.671 69.280 C 138.569 62.856,133.225 57.600,132.794 57.600 C 132.363 57.600,128.084 62.986,123.285 69.568 M140.463 88.803 C 144.872 102.933,148.466 114.869,148.448 115.327 C 148.419 116.081,115.917 139.184,115.502 138.746 C 115.405 138.644,115.838 126.019,116.463 110.690 L 117.601 82.820 124.880 72.830 C 128.884 67.335,132.224 62.901,132.303 62.976 C 132.381 63.051,136.053 74.673,140.463 88.803 M265.776 73.723 L 272.556 83.126 273.569 111.098 C 274.127 126.483,274.505 139.140,274.411 139.225 C 274.026 139.571,242.226 116.418,242.062 115.671 C 241.929 115.066,255.653 69.583,257.637 64.053 C 258.043 62.920,257.648 62.451,265.776 73.723 M152.586 82.189 L 167.066 97.498 172.173 113.282 C 174.982 121.963,177.280 129.243,177.280 129.460 C 177.280 130.280,168.958 135.754,168.316 135.358 C 167.947 135.129,164.153 130.602,159.886 125.298 L 152.127 115.654 144.852 92.227 C 140.850 79.342,137.284 67.936,136.926 66.881 C 136.359 65.207,136.393 65.084,137.191 65.921 C 137.694 66.448,144.622 73.769,152.586 82.189 M245.861 91.381 L 238.296 115.789 230.400 125.574 C 226.057 130.957,222.422 135.466,222.322 135.596 C 221.992 136.027,214.438 130.254,214.419 129.557 C 214.408 129.181,216.393 121.753,218.829 113.050 L 223.258 97.228 238.120 81.878 C 246.294 73.436,253.082 66.629,253.205 66.751 C 253.327 66.873,250.022 77.957,245.861 91.381 M214.880 96.429 C 217.432 97.026,219.519 97.821,219.518 98.197 C 219.516 99.174,211.411 128.003,211.032 128.382 C 210.858 128.555,207.205 128.098,202.913 127.366 L 195.110 126.034 188.004 127.332 C 184.095 128.046,180.795 128.528,180.669 128.403 C 180.335 128.069,170.232 97.708,170.410 97.571 C 173.557 95.142,205.831 94.312,214.880 96.429 M158.607 128.746 C 166.336 138.419,166.098 137.771,162.742 140.018 C 160.899 141.253,155.775 147.436,146.569 159.532 C 131.565 179.248,134.441 176.607,117.604 186.131 L 110.728 190.021 112.633 186.691 C 113.682 184.859,122.680 168.900,132.630 151.227 C 146.186 127.147,150.897 119.287,151.425 119.867 C 151.813 120.292,155.045 124.288,158.607 128.746 M276.865 187.347 L 278.438 190.054 268.019 184.064 L 257.600 178.075 244.369 160.557 C 236.381 149.982,229.855 141.984,227.901 140.374 L 224.664 137.708 232.145 128.452 L 239.626 119.195 257.459 151.917 C 267.267 169.915,276.000 185.858,276.865 187.347 M138.798 127.311 C 137.455 129.194,106.615 163.148,106.423 162.956 C 106.330 162.863,108.214 158.394,110.609 153.024 L 114.964 143.262 127.082 134.722 C 140.392 125.343,140.045 125.563,138.798 127.311 M266.257 137.464 L 274.915 143.627 277.570 149.733 C 279.031 153.092,280.963 157.496,281.865 159.520 C 282.766 161.544,283.383 163.200,283.236 163.200 C 283.023 163.200,271.398 150.182,251.567 127.735 C 249.755 125.684,249.087 125.242,266.257 137.464 M203.392 130.496 C 207.018 131.153,210.084 131.796,210.205 131.925 C 210.418 132.152,206.498 156.263,205.767 159.217 C 205.410 160.662,205.335 160.672,195.685 160.497 L 185.962 160.320 183.613 146.240 C 182.320 138.496,181.394 132.016,181.554 131.840 C 181.999 131.350,192.030 129.443,194.560 129.368 C 195.792 129.331,199.766 129.839,203.392 130.496 M137.823 135.520 C 132.567 144.983,131.161 146.930,121.600 157.983 C 111.803 169.308,111.642 169.456,108.599 169.911 C 106.904 170.164,105.378 170.232,105.207 170.061 C 104.918 169.771,139.425 131.200,139.973 131.200 C 140.110 131.200,139.143 133.144,137.823 135.520 M269.330 152.640 C 278.093 162.496,285.192 170.646,285.106 170.752 C 285.020 170.858,283.548 170.749,281.835 170.511 C 278.730 170.079,278.688 170.041,268.480 158.207 C 257.430 145.398,257.720 145.793,253.164 137.280 C 249.296 130.050,248.966 129.737,269.330 152.640 M180.763 147.557 L 183.110 161.675 180.984 170.165 L 178.857 178.656 170.997 161.252 C 166.674 151.681,163.284 143.703,163.464 143.523 C 164.106 142.881,178.198 133.185,178.305 133.311 C 178.366 133.382,179.471 139.793,180.763 147.557 M226.801 144.243 C 226.701 145.147,211.684 177.979,211.470 177.761 C 211.384 177.672,210.680 174.144,209.906 169.920 L 208.500 162.240 210.932 147.765 L 213.365 133.291 220.123 138.409 C 223.839 141.224,226.844 143.849,226.801 144.243 M160.221 156.376 L 160.619 164.593 156.950 164.258 C 152.080 163.814,148.480 163.147,148.480 162.689 C 148.480 162.211,159.496 147.751,159.682 147.984 C 159.759 148.081,160.001 151.857,160.221 156.376 M240.207 163.367 C 239.213 163.652,236.456 164.108,234.080 164.380 L 229.760 164.875 229.760 162.216 C 229.760 160.753,229.946 156.938,230.173 153.737 L 230.586 147.917 236.300 155.383 L 242.014 162.848 240.207 163.367 M167.542 161.280 C 169.668 166.032,172.291 171.877,173.370 174.269 C 174.450 176.662,174.979 178.413,174.546 178.162 C 166.437 173.453,163.904 169.207,163.406 159.492 C 163.195 155.372,163.170 152.144,163.349 152.320 C 163.529 152.496,165.416 156.528,167.542 161.280 M226.841 159.520 C 226.438 166.319,226.288 166.917,224.157 170.267 C 222.260 173.249,216.039 178.597,215.389 177.805 C 215.180 177.551,226.710 152.320,227.035 152.320 C 227.163 152.320,227.076 155.560,226.841 159.520 M271.287 166.277 C 273.788 169.202,276.010 172.370,276.224 173.317 C 276.438 174.265,277.032 176.728,277.543 178.791 C 278.832 183.997,278.474 183.800,275.024 177.411 C 273.370 174.347,270.536 169.104,268.727 165.760 C 266.918 162.416,265.731 159.968,266.089 160.320 C 266.447 160.672,268.786 163.353,271.287 166.277 M121.785 164.000 C 121.113 165.144,118.586 169.605,116.169 173.914 C 111.135 182.889,111.005 182.994,112.587 176.848 C 113.993 171.381,113.852 171.629,118.611 166.240 C 122.851 161.439,123.599 160.911,121.785 164.000 M205.682 164.320 C 206.168 165.981,208.640 180.261,208.640 181.410 C 208.640 182.554,204.490 182.682,189.969 181.986 L 181.335 181.572 183.610 172.386 L 185.885 163.200 195.619 163.200 C 204.339 163.200,205.388 163.317,205.682 164.320 M150.910 166.304 C 151.834 166.565,153.272 168.265,154.782 170.880 L 157.185 175.040 161.727 175.680 C 165.903 176.269,175.382 181.350,175.354 182.984 C 175.350 183.191,170.068 185.243,163.616 187.545 L 151.884 191.730 144.902 185.750 C 141.062 182.461,137.566 179.422,137.133 178.995 C 136.513 178.385,137.364 176.901,141.150 171.990 C 146.198 165.443,146.745 165.124,150.910 166.304 M248.526 171.555 C 250.914 174.742,253.004 177.708,253.172 178.144 C 253.342 178.588,250.090 181.816,245.814 185.449 L 238.150 191.960 226.286 187.660 C 219.761 185.295,214.417 183.195,214.411 182.993 C 214.361 181.342,223.732 176.459,228.137 175.841 L 232.928 175.169 235.509 170.825 C 238.178 166.332,238.065 166.404,243.213 165.862 C 243.759 165.805,246.090 168.303,248.526 171.555 M135.994 188.782 C 137.224 192.435,138.156 195.497,138.066 195.587 C 137.810 195.844,112.602 193.456,112.292 193.146 C 112.141 192.994,116.691 190.239,122.404 187.023 C 128.117 183.807,133.009 181.393,133.275 181.659 C 133.540 181.924,134.764 185.130,135.994 188.782 M270.582 189.120 C 274.871 191.587,277.873 193.671,277.265 193.757 C 273.538 194.287,251.866 196.399,251.714 196.247 C 251.613 196.146,252.715 192.715,254.164 188.624 L 256.799 181.185 259.797 182.913 C 261.446 183.863,266.299 186.656,270.582 189.120 M151.904 195.011 C 160.502 191.775,176.746 186.132,176.930 186.316 C 177.065 186.452,176.281 191.458,175.187 197.442 L 173.198 208.320 166.886 217.794 L 160.573 227.269 156.719 223.874 C 154.599 222.008,152.051 219.760,151.058 218.880 C 149.616 217.602,148.156 214.126,143.799 201.600 C 140.800 192.976,138.128 185.364,137.860 184.684 C 137.593 184.004,140.477 186.112,144.270 189.368 C 148.064 192.624,151.499 195.163,151.904 195.011 M246.645 200.480 L 240.674 217.280 236.017 221.611 C 228.870 228.259,230.047 228.584,223.007 218.017 L 216.868 208.803 214.904 197.824 C 213.824 191.786,213.081 186.706,213.251 186.535 C 213.422 186.365,219.073 188.244,225.809 190.712 C 240.613 196.137,238.010 196.296,245.878 189.481 C 249.509 186.336,252.510 183.744,252.547 183.721 C 252.585 183.699,249.928 191.240,246.645 200.480 M181.692 198.720 C 181.764 201.953,181.042 206.519,179.097 215.125 L 176.403 227.050 173.162 227.439 C 169.157 227.921,164.480 227.955,164.480 227.503 C 164.480 227.318,167.065 223.304,170.225 218.583 L 175.969 210.000 178.222 197.960 C 179.462 191.338,180.523 185.632,180.581 185.280 C 180.768 184.149,181.589 194.089,181.692 198.720 M205.847 186.720 C 204.144 195.692,205.087 208.637,208.471 222.709 C 208.820 224.158,208.555 224.048,205.475 221.469 L 202.096 218.640 194.968 218.613 L 187.840 218.586 184.395 221.315 C 179.930 224.851,179.983 225.094,182.696 213.412 C 184.997 203.506,185.023 203.239,184.582 194.163 L 184.135 184.960 195.158 184.960 L 206.182 184.960 205.847 186.720 M211.828 198.080 L 213.954 210.240 219.500 218.560 C 222.551 223.136,225.276 227.265,225.556 227.736 C 225.985 228.457,213.533 228.282,212.649 227.555 C 211.032 226.226,207.924 202.123,208.325 194.021 C 208.889 182.621,209.184 182.964,211.828 198.080 M121.006 208.305 C 123.796 214.615,125.863 219.975,125.599 220.216 C 124.811 220.937,109.926 225.980,109.587 225.640 C 109.054 225.108,114.772 196.444,115.371 196.644 C 115.681 196.747,118.217 201.994,121.006 208.305 M132.280 198.145 L 138.160 198.578 134.094 206.649 C 128.014 218.717,128.944 218.626,124.130 207.627 C 121.859 202.437,119.889 197.905,119.754 197.557 C 119.599 197.158,120.785 197.070,122.954 197.318 C 124.849 197.534,129.046 197.906,132.280 198.145 M276.516 198.560 C 276.535 199.352,277.212 205.904,278.019 213.120 C 278.827 220.336,279.437 226.310,279.376 226.395 C 279.314 226.480,275.636 225.223,271.201 223.602 L 263.139 220.654 265.371 215.767 C 266.599 213.079,268.952 207.789,270.601 204.012 C 273.676 196.969,276.414 194.445,276.516 198.560 M265.712 207.292 C 263.362 212.534,261.215 216.687,260.939 216.521 C 260.340 216.159,251.996 199.623,252.281 199.364 C 252.552 199.117,264.003 197.966,267.312 197.852 L 269.983 197.760 265.712 207.292 M146.095 223.283 C 146.025 226.585,145.847 229.406,145.700 229.553 C 145.316 229.937,130.469 220.718,130.701 220.240 C 130.807 220.020,133.018 215.664,135.613 210.560 L 140.332 201.280 143.278 209.280 C 146.076 216.879,146.218 217.581,146.095 223.283 M254.540 211.466 L 259.140 220.692 257.593 221.706 C 254.915 223.460,244.446 229.760,244.207 229.760 C 244.082 229.760,243.834 227.528,243.655 224.800 C 243.353 220.197,248.092 202.248,249.610 202.241 C 249.792 202.241,252.010 206.392,254.540 211.466 M160.246 233.828 C 161.943 239.789,162.647 242.687,162.442 242.870 C 162.331 242.970,159.288 240.613,155.680 237.633 L 149.120 232.214 149.120 226.775 L 149.120 221.336 154.214 225.936 C 158.578 229.876,159.443 231.008,160.246 233.828 M193.280 226.137 L 193.280 230.834 186.431 234.095 C 182.664 235.888,179.352 237.214,179.071 237.040 C 178.451 236.657,178.473 231.808,179.101 230.218 C 179.967 228.026,188.949 221.549,191.200 221.492 L 193.280 221.440 193.280 226.137 M204.964 225.486 C 209.226 229.208,209.633 229.782,210.043 232.647 C 210.777 237.777,210.356 237.867,203.010 234.151 L 196.480 230.847 196.480 226.143 L 196.480 221.440 198.405 221.440 C 199.854 221.440,201.477 222.442,204.964 225.486 M240.640 227.130 L 240.640 232.180 234.400 237.152 C 230.968 239.887,227.824 242.382,227.413 242.697 C 226.788 243.175,229.949 231.277,230.627 230.600 C 231.368 229.859,240.348 222.107,240.480 222.095 C 240.568 222.087,240.640 224.353,240.640 227.130 M135.221 227.183 C 138.953 229.462,141.858 231.475,141.676 231.658 C 141.494 231.840,135.246 232.478,127.792 233.077 L 114.240 234.165 112.442 231.993 C 111.453 230.798,110.589 229.627,110.522 229.391 C 110.405 228.977,127.288 222.780,128.057 222.954 C 128.265 223.001,131.488 224.904,135.221 227.183 M269.803 226.361 L 278.198 229.362 275.380 231.801 C 273.437 233.483,271.953 234.240,270.600 234.240 C 268.278 234.240,247.439 232.292,247.200 232.053 C 247.024 231.877,260.589 223.417,261.103 223.381 C 261.270 223.370,265.185 224.710,269.803 226.361 M175.498 233.862 C 174.988 240.016,179.919 246.095,188.020 249.302 L 194.165 251.734 197.402 250.586 C 208.196 246.759,214.084 240.684,213.312 234.171 L 212.942 231.040 219.988 231.040 L 227.034 231.040 224.677 238.847 L 222.321 246.654 218.533 249.727 L 214.746 252.800 194.679 252.800 L 174.612 252.800 170.825 249.825 C 167.868 247.502,166.881 246.275,166.320 244.225 C 165.925 242.781,164.967 239.238,164.189 236.351 L 162.777 231.101 165.708 230.866 C 167.321 230.737,170.248 230.579,172.213 230.515 L 175.785 230.400 175.498 233.862 M197.950 235.077 C 200.349 236.530,200.364 236.562,199.108 237.699 C 198.270 238.456,197.686 240.085,197.398 242.465 C 196.409 250.619,193.201 250.963,191.927 243.053 C 191.573 240.854,190.868 238.598,190.362 238.037 C 189.046 236.583,189.163 236.337,191.840 234.924 C 194.893 233.312,195.039 233.316,197.950 235.077 M155.083 241.224 L 162.646 247.328 141.643 257.639 C 124.240 266.182,120.562 267.775,120.185 266.935 C 119.740 265.941,115.144 237.273,115.394 237.043 C 115.759 236.705,146.338 234.523,146.880 234.797 C 147.232 234.974,150.923 237.866,155.083 241.224 M258.132 236.128 C 265.113 236.790,270.906 237.428,271.005 237.546 C 271.213 237.793,268.099 267.739,267.835 268.037 C 267.738 268.145,258.391 263.598,247.063 257.932 L 226.467 247.629 234.353 241.278 C 239.617 237.040,242.772 234.927,243.840 234.926 C 244.720 234.925,251.152 235.466,258.132 236.128 M187.580 239.540 C 189.136 241.705,189.653 246.626,188.265 246.062 C 187.679 245.824,186.480 245.364,185.600 245.041 C 184.720 244.717,183.343 243.441,182.540 242.204 L 181.079 239.955 183.180 239.043 C 185.974 237.829,186.384 237.875,187.580 239.540 M205.730 238.823 C 208.467 240.070,206.559 243.606,202.187 245.392 L 199.894 246.328 200.325 243.487 C 201.005 239.008,202.778 237.478,205.730 238.823 M168.078 251.680 C 169.597 252.824,170.849 253.946,170.860 254.173 C 170.881 254.608,135.088 292.668,134.361 292.984 C 134.129 293.085,131.076 288.189,127.578 282.104 L 121.218 271.040 143.009 260.361 C 168.611 247.815,164.729 249.159,168.078 251.680 M264.861 275.060 C 263.712 277.073,260.855 281.983,258.512 285.970 L 254.254 293.220 236.040 273.819 L 217.826 254.418 220.739 252.080 L 223.653 249.743 245.302 260.571 L 266.951 271.399 264.861 275.060 M200.645 257.542 L 194.891 259.654 189.765 257.928 C 186.946 256.978,184.208 256.035,183.680 255.831 C 183.152 255.628,188.048 255.454,194.560 255.445 L 206.400 255.429 200.645 257.542 M183.697 259.096 L 192.960 262.192 193.126 296.536 C 193.217 315.425,193.060 330.880,192.778 330.880 C 192.495 330.880,185.489 316.840,177.209 299.680 L 162.154 268.480 167.957 262.272 C 171.149 258.857,173.912 256.049,174.097 256.032 C 174.282 256.014,178.602 257.393,183.697 259.096 M218.910 260.320 C 221.196 262.696,223.893 265.562,224.903 266.688 L 226.739 268.737 211.501 299.968 C 203.120 317.146,196.168 331.320,196.052 331.467 C 195.935 331.613,195.840 316.173,195.840 297.154 L 195.840 262.575 204.960 259.335 C 209.976 257.552,214.232 256.073,214.417 256.047 C 214.603 256.021,216.625 257.944,218.910 260.320 M175.617 303.633 C 183.917 320.855,190.624 335.029,190.522 335.132 C 190.372 335.282,137.484 297.058,136.552 296.125 C 136.404 295.977,141.515 290.327,147.910 283.569 C 154.305 276.811,159.760 271.515,160.032 271.801 C 160.304 272.086,167.317 286.411,175.617 303.633 M241.886 284.712 C 247.598 290.824,252.030 296.042,251.736 296.307 C 250.647 297.289,198.371 335.360,198.112 335.360 C 197.790 335.360,204.117 322.162,218.498 292.834 C 228.918 271.583,229.177 271.134,230.326 272.354 C 230.973 273.039,236.175 278.601,241.886 284.712 " stroke="none" fill="#000000" fill-rule="evenodd"></path></g></svg>